<?xml version="1.0" encoding="UTF-8"?>
<!-- Generator: visioncortex VTracer 0.6.3 -->
<svg version="1.1" xmlns="http://www.w3.org/2000/svg" width="1280" height="1280">
<path d="M0 0 C0.93 -0 1.85 -0 2.8 -0.01 C5.87 -0.01 8.94 -0.01 12 -0 C14.14 -0 16.27 -0.01 18.4 -0.01 C22.87 -0.01 27.34 -0.01 31.82 -0 C37.54 0 43.26 0 48.99 -0 C53.39 -0.01 57.8 -0.01 62.2 -0 C64.31 -0 66.42 -0 68.53 -0.01 C71.49 -0.01 74.44 -0.01 77.4 0 C78.27 -0 79.13 -0 80.03 -0.01 C84.77 0.01 89.26 0.38 93.96 1.13 C96.98 1.16 99.98 1.07 102.99 0.97 C106.29 1.15 108.83 2.09 111.96 3.13 C114.37 3.37 116.79 3.53 119.21 3.63 C124.42 3.9 129.4 4.45 134.5 5.59 C137.31 6.21 140.12 6.67 142.96 7.13 C147.6 7.88 152.2 8.77 156.8 9.76 C159.25 10.24 159.25 10.24 162.96 10.13 C163.29 10.79 163.62 11.45 163.96 12.13 C165.91 12.49 165.91 12.49 168.27 12.57 C173.39 12.98 178.12 14.07 183.08 15.37 C187.01 16.41 190.98 17.27 194.96 18.13 C196.65 18.5 198.33 18.88 200.02 19.25 C200.77 19.42 201.53 19.59 202.31 19.76 C202.85 19.88 203.4 20 203.96 20.13 C203.96 20.79 203.96 21.45 203.96 22.13 C204.6 22.18 205.24 22.23 205.9 22.28 C211.15 22.73 215.99 23.33 220.96 25.13 C221.29 25.79 221.62 26.45 221.96 27.13 C223.87 27.79 223.87 27.79 226.15 28.19 C226.95 28.36 227.76 28.52 228.59 28.69 C231.37 29.21 234.16 29.7 236.96 30.13 C236.96 30.79 236.96 31.45 236.96 32.13 C237.83 32.31 237.83 32.31 238.72 32.5 C247.43 34.36 256.03 37.06 263.97 41.17 C266.18 42.24 268.34 42.86 270.71 43.5 C276.55 45.21 281.62 47.67 286.77 50.88 C288.97 52.38 288.97 52.38 291.96 52.13 C291.96 52.79 291.96 53.45 291.96 54.13 C293.01 54.23 294.06 54.34 295.15 54.44 C299.02 55.14 300.69 56.07 303.96 58.13 C306.35 59.46 308.74 60.77 311.15 62.07 C311.8 62.42 312.46 62.77 313.14 63.14 C317.71 65.56 322.31 67.61 327.2 69.34 C328.96 70.13 328.96 70.13 329.96 72.13 C332.6 73.53 335.26 74.84 337.96 76.13 C340.02 77.12 342.09 78.12 344.15 79.13 C345.13 79.6 346.11 80.08 347.13 80.57 C350.02 82.16 352.39 84.06 354.96 86.13 C356.61 86.51 358.28 86.86 359.96 87.13 C361.96 89.13 361.96 89.13 363.96 92.13 C365.62 92.47 367.29 92.8 368.96 93.13 C370.52 94.5 370.52 94.5 371.96 96.13 C374.37 98.09 375.97 99.13 378.96 100.13 C378.96 100.79 378.96 101.45 378.96 102.13 C379.95 102.13 380.94 102.13 381.96 102.13 C381.96 102.79 381.96 103.45 381.96 104.13 C383.6 104.53 383.6 104.53 385.27 104.94 C388.65 106.03 389.85 106.47 391.96 109.13 C394.3 111.47 396.76 113.02 399.65 114.63 C400.41 115.12 401.17 115.62 401.96 116.13 C401.96 116.79 401.96 117.45 401.96 118.13 C402.7 118.4 403.44 118.67 404.21 118.94 C407.86 120.52 410.47 122.73 413.52 125.25 C415.89 127.29 415.89 127.29 418.96 128.13 C420.65 129.57 420.65 129.57 421.96 131.13 C421.96 131.79 421.96 132.45 421.96 133.13 C422.62 133.13 423.28 133.13 423.96 133.13 C424.62 133.79 425.28 134.45 425.96 135.13 C426.95 135.46 427.94 135.79 428.96 136.13 C429.62 136.79 430.28 137.45 430.96 138.13 C431.62 138.46 432.28 138.79 432.96 139.13 C432.96 140.12 432.96 141.11 432.96 142.13 C433.95 142.13 434.94 142.13 435.96 142.13 C435.96 142.79 435.96 143.45 435.96 144.13 C436.95 144.46 437.94 144.79 438.96 145.13 C438.96 145.79 438.96 146.45 438.96 147.13 C441.6 148.45 444.24 149.77 446.96 151.13 C446.96 151.79 446.96 152.45 446.96 153.13 C447.85 153.26 447.85 153.26 448.75 153.4 C451.52 154.31 452.41 155.49 454.21 157.75 C457.26 161.42 460.53 164.45 464.16 167.52 C466.39 169.51 468.2 171.71 469.96 174.13 C469.63 174.79 469.3 175.45 468.96 176.13 C469.7 176.19 470.44 176.25 471.21 176.32 C474.85 177.39 475.75 179.09 477.96 182.13 C479.61 183.81 481.28 185.48 482.96 187.13 C486.62 190.8 490.29 194.46 493.96 198.13 C494.83 198.99 495.7 199.86 496.6 200.75 C498.52 202.69 500.4 204.64 502.21 206.69 C502.71 207.25 503.21 207.81 503.72 208.38 C505.07 210.29 505.54 211.84 505.96 214.13 C506.62 214.13 507.28 214.13 507.96 214.13 C507.96 215.12 507.96 216.11 507.96 217.13 C508.95 217.13 509.94 217.13 510.96 217.13 C510.96 217.79 510.96 218.45 510.96 219.13 C511.62 219.46 512.28 219.79 512.96 220.13 C515.01 222.43 517 224.75 518.96 227.13 C519.65 227.97 520.35 228.81 521.06 229.68 C524.09 233.4 526.85 236.81 528.96 241.13 C529.62 241.79 530.28 242.45 530.96 243.13 C532.01 244.29 533.05 245.45 534.08 246.63 C534.89 247.54 534.89 247.54 535.72 248.47 C536.96 250.13 536.96 250.13 536.96 252.13 C537.62 252.13 538.28 252.13 538.96 252.13 C539.3 252.76 539.63 253.38 539.98 254.03 C540.65 255.25 540.65 255.25 541.33 256.5 C541.99 257.72 541.99 257.72 542.67 258.97 C543.9 261.24 543.9 261.24 545.96 263.13 C546.67 264.78 547.34 266.45 547.96 268.13 C548.62 268.13 549.28 268.13 549.96 268.13 C550.92 269.88 551.88 271.63 552.83 273.38 C553.63 274.84 553.63 274.84 554.45 276.33 C555.66 278.58 556.83 280.84 557.96 283.13 C558.62 283.13 559.28 283.13 559.96 283.13 C560.3 283.84 560.63 284.55 560.98 285.28 C561.65 286.66 561.65 286.66 562.33 288.07 C562.77 288.98 563.21 289.9 563.67 290.84 C564.75 293.26 564.75 293.26 566.96 294.13 C567.96 296.27 567.96 296.27 568.96 298.94 C570.15 302.1 571.39 305.14 572.96 308.13 C573.62 308.13 574.28 308.13 574.96 308.13 C575.78 309.69 576.59 311.25 577.4 312.82 C577.85 313.69 578.3 314.56 578.77 315.45 C579.92 318.04 580.52 320.34 580.96 323.13 C581.62 323.13 582.28 323.13 582.96 323.13 C585.96 329.75 585.96 329.75 585.96 333.13 C586.62 333.13 587.28 333.13 587.96 333.13 C588.25 333.93 588.54 334.74 588.83 335.57 C589.69 338.26 589.69 338.26 591.96 339.13 C592.81 341.41 592.81 341.41 593.58 344.19 C593.84 345.11 594.1 346.03 594.37 346.98 C594.66 348.04 594.66 348.04 594.96 349.13 C595.62 349.13 596.28 349.13 596.96 349.13 C597.27 350.05 597.59 350.97 597.91 351.91 C600.23 358.55 602.62 364.93 605.96 371.13 C606.29 371.79 606.62 372.45 606.96 373.13 C606.63 373.79 606.3 374.45 605.96 375.13 C606.62 375.13 607.28 375.13 607.96 375.13 C607.96 376.78 607.96 378.43 607.96 380.13 C608.62 380.13 609.28 380.13 609.96 380.13 C611.96 383.13 611.96 383.13 611.58 385.82 C611.38 386.58 611.17 387.34 610.96 388.13 C611.62 388.13 612.28 388.13 612.96 388.13 C615.83 394.75 615.83 394.75 616.96 398.13 C616.63 398.79 616.3 399.45 615.96 400.13 C616.62 400.13 617.28 400.13 617.96 400.13 C617.96 401.78 617.96 403.43 617.96 405.13 C618.62 405.13 619.28 405.13 619.96 405.13 C620.23 406.28 620.49 407.44 620.77 408.63 C621.67 412.26 622.87 415.68 624.23 419.17 C624.95 421.12 625.54 423.06 626.08 425.07 C626.65 427.98 626.65 427.98 627.96 429.13 C628.1 430.24 628.25 431.36 628.4 432.5 C628.71 436.21 628.71 436.21 630.96 439.13 C631.31 441.13 631.64 443.13 631.96 445.13 C632.58 446.81 633.23 448.49 633.96 450.13 C634.29 450.13 634.62 450.13 634.96 450.13 C635.01 450.88 635.06 451.62 635.11 452.4 C635.18 453.38 635.26 454.36 635.33 455.38 C635.4 456.35 635.47 457.33 635.54 458.33 C635.95 461.07 636.64 462.74 637.96 465.13 C639.63 470.72 640.29 475.99 640.61 481.81 C640.75 484.32 640.75 484.32 642.96 486.13 C643.34 488.44 643.34 488.44 643.52 491.13 C643.73 494.77 643.73 494.77 644.96 498.13 C645.23 500.92 645.4 503.7 645.58 506.5 C645.8 509.36 645.8 509.36 647.96 512.13 C648.23 514.48 648.41 516.83 648.52 519.19 C648.59 523.82 648.59 523.82 649.96 528.13 C650.19 531.51 650.35 534.89 650.48 538.28 C650.66 542.03 650.83 543.93 652.96 547.13 C653.26 549.75 653.26 549.75 653.34 552.86 C653.39 554.53 653.39 554.53 653.44 556.23 C653.47 557.39 653.49 558.56 653.52 559.75 C653.58 562.06 653.64 564.36 653.71 566.67 C653.75 568.2 653.75 568.2 653.78 569.77 C653.7 572.09 653.7 572.09 654.96 573.13 C655.06 575.83 655.09 578.51 655.09 581.21 C655.09 582.06 655.09 582.91 655.09 583.78 C655.1 586.59 655.09 589.41 655.09 592.22 C655.09 594.17 655.09 596.12 655.09 598.06 C655.1 602.15 655.09 606.23 655.09 610.32 C655.08 615.57 655.09 620.82 655.09 626.07 C655.1 630.09 655.09 634.11 655.09 638.13 C655.09 640.07 655.09 642.01 655.09 643.94 C655.1 646.64 655.09 649.34 655.09 652.05 C655.09 653.26 655.09 653.26 655.09 654.49 C655.07 660.02 655.07 660.02 653.96 661.13 C653.82 662.86 653.75 664.6 653.71 666.34 C653.68 667.4 653.65 668.46 653.61 669.55 C653.55 671.8 653.49 674.05 653.44 676.3 C653.41 677.36 653.37 678.43 653.34 679.52 C653.3 680.99 653.3 680.99 653.26 682.49 C652.95 685.2 652.2 686.75 650.96 689.13 C650.61 691.22 650.61 691.22 650.58 693.39 C650.54 694.18 650.51 694.97 650.48 695.78 C650.44 697.01 650.44 697.01 650.4 698.25 C650.08 706.89 650.08 706.89 648.96 709.13 C648.68 712.18 648.51 715.23 648.34 718.28 C647.96 721.13 647.96 721.13 645.96 724.13 C645.54 726.84 645.54 726.84 645.4 729.75 C645.06 735.03 645.06 735.03 643.96 736.13 C643.72 737.98 643.54 739.83 643.4 741.69 C643.31 742.7 643.23 743.72 643.14 744.76 C643.05 745.93 643.05 745.93 642.96 747.13 C642.3 747.13 641.64 747.13 640.96 747.13 C640.9 748.06 640.84 748.98 640.77 749.94 C640.65 751.73 640.65 751.73 640.52 753.57 C640.44 754.76 640.36 755.96 640.27 757.19 C639.96 760.13 639.96 760.13 638.96 761.13 C638.73 763.12 638.51 765.12 638.34 767.12 C637.96 769.13 637.96 769.13 635.96 772.13 C635.76 774.05 635.56 775.97 635.37 777.9 C634.92 780.35 634.1 782.26 633.02 784.5 C631.07 788.57 630.17 792.42 629.39 796.85 C628.85 799.72 627.94 802.38 626.96 805.13 C626.49 806.8 626.49 806.8 626.02 808.5 C625.09 811.67 624.01 814.72 622.82 817.8 C621.07 822.53 619.53 827.34 617.96 832.13 C617.3 832.13 616.64 832.13 615.96 832.13 C616.02 833.52 616.02 833.52 616.08 834.94 C615.96 838.13 615.96 838.13 613.96 841.13 C613.26 843.12 612.6 845.12 611.96 847.13 C611.14 849.32 610.3 851.51 609.46 853.69 C609.04 854.79 608.61 855.88 608.18 857.01 C607.12 859.72 606.04 862.43 604.96 865.13 C604.3 865.13 603.64 865.13 602.96 865.13 C602.77 866.21 602.77 866.21 602.58 867.32 C601.97 870.09 601.07 872.53 599.96 875.13 C599.3 875.13 598.64 875.13 597.96 875.13 C597.96 876.78 597.96 878.43 597.96 880.13 C597.3 880.13 596.64 880.13 595.96 880.13 C595.88 881.2 595.79 882.27 595.71 883.38 C594.88 887.52 593.98 888.39 590.96 891.13 C590.17 893.27 590.17 893.27 589.96 895.13 C589.3 895.13 588.64 895.13 587.96 895.13 C587.79 896.21 587.79 896.21 587.61 897.32 C586.93 900.24 585.92 902.48 584.52 905.13 C582.8 908.41 581.29 911.67 579.96 915.13 C579.3 915.13 578.64 915.13 577.96 915.13 C577.83 916.18 577.83 916.18 577.71 917.25 C576.78 920.81 575 923.09 572.96 926.13 C571.83 928.2 570.73 930.28 569.65 932.38 C566.89 937.59 563.85 942.37 560.34 947.11 C558.79 949.18 558.79 949.18 557.96 952.13 C557.3 952.13 556.64 952.13 555.96 952.13 C555.56 953.49 555.56 953.49 555.15 954.88 C554.03 957.94 552.94 959.61 550.96 962.13 C550.2 963.19 550.2 963.19 549.42 964.27 C548.92 964.97 548.41 965.66 547.9 966.38 C547.14 967.44 547.14 967.44 546.36 968.52 C545.9 969.05 545.43 969.58 544.96 970.13 C544.3 970.13 543.64 970.13 542.96 970.13 C542.87 970.84 542.79 971.54 542.7 972.27 C541.79 975.78 540.23 977.97 538.08 980.88 C537.38 981.84 536.69 982.81 535.97 983.8 C533.96 986.13 533.96 986.13 530.96 987.13 C530.73 987.98 530.5 988.82 530.27 989.69 C528.63 993.99 526.18 996.14 522.83 999.2 C520.97 1001.12 520.07 1002.72 518.96 1005.13 C516.85 1007.77 514.77 1010.35 512.33 1012.69 C510.83 1014.14 510.83 1014.14 509.77 1016.32 C507.04 1020.55 503.42 1023.76 499.78 1027.23 C496.3 1030.61 493.53 1033.96 490.96 1038.13 C490.3 1039.12 489.64 1040.11 488.96 1041.13 C488.3 1041.13 487.64 1041.13 486.96 1041.13 C486.96 1041.79 486.96 1042.45 486.96 1043.13 C486.3 1043.13 485.64 1043.13 484.96 1043.13 C484.63 1044.12 484.3 1045.11 483.96 1046.13 C483.3 1046.13 482.64 1046.13 481.96 1046.13 C481.96 1046.79 481.96 1047.45 481.96 1048.13 C481.3 1048.13 480.64 1048.13 479.96 1048.13 C479.63 1049.12 479.3 1050.11 478.96 1051.13 C478.3 1051.13 477.64 1051.13 476.96 1051.13 C476.56 1052.09 476.56 1052.09 476.15 1053.07 C474.96 1055.13 474.96 1055.13 471.96 1056.13 C471.96 1056.79 471.96 1057.45 471.96 1058.13 C471.3 1058.13 470.64 1058.13 469.96 1058.13 C469.63 1059.12 469.3 1060.11 468.96 1061.13 C468.3 1061.13 467.64 1061.13 466.96 1061.13 C466.96 1061.79 466.96 1062.45 466.96 1063.13 C466.3 1063.13 465.64 1063.13 464.96 1063.13 C464.63 1064.12 464.3 1065.11 463.96 1066.13 C463.3 1066.13 462.64 1066.13 461.96 1066.13 C461.96 1066.79 461.96 1067.45 461.96 1068.13 C460.47 1069.16 460.47 1069.16 458.43 1070.29 C453.73 1073.11 450.21 1076.61 446.46 1080.57 C442.14 1085.1 437.84 1089.17 432.75 1092.83 C431.04 1094.07 429.44 1095.38 427.83 1096.75 C424.96 1099.13 424.96 1099.13 422.02 1101.07 C418.99 1103.11 416.31 1105.34 413.56 1107.73 C408.5 1112.13 408.5 1112.13 405.96 1112.13 C405.96 1112.79 405.96 1113.45 405.96 1114.13 C405.05 1114.54 404.14 1114.95 403.21 1115.38 C400.11 1117.05 398.37 1118.64 395.96 1121.13 C394.3 1122.14 392.63 1123.14 390.96 1124.13 C390.18 1124.96 390.18 1124.96 389.4 1125.82 C387.96 1127.13 387.96 1127.13 383.96 1127.13 C383.63 1128.12 383.3 1129.11 382.96 1130.13 C381.22 1131.45 381.22 1131.45 379.08 1132.69 C378.38 1133.11 377.69 1133.52 376.97 1133.95 C375.97 1134.53 375.97 1134.53 374.96 1135.13 C373.97 1135.79 372.98 1136.45 371.96 1137.13 C370.97 1137.13 369.98 1137.13 368.96 1137.13 C368.63 1138.12 368.3 1139.11 367.96 1140.13 C365.23 1141.81 365.23 1141.81 361.77 1143.57 C358.28 1145.35 354.97 1147.12 351.71 1149.31 C349 1151.1 347.16 1151.75 343.96 1152.13 C343.63 1153.12 343.3 1154.11 342.96 1155.13 C340.76 1156.45 340.76 1156.45 337.83 1157.82 C332.9 1160.17 328.07 1162.65 323.27 1165.25 C318.5 1167.83 313.73 1170.24 308.69 1172.24 C306.6 1173.31 305.39 1174.26 303.96 1176.13 C303.46 1178.53 303.46 1178.53 303.4 1181.13 C303.21 1184.82 303.08 1185.94 300.96 1189.13 C300.96 1189.98 300.96 1190.82 300.96 1191.69 C300.96 1192.5 300.96 1193.3 300.96 1194.13 C300.3 1194.79 299.64 1195.45 298.96 1196.13 C298.25 1198.12 297.59 1200.12 296.96 1202.13 C296.31 1203.8 295.64 1205.47 294.96 1207.13 C294.59 1208.06 294.22 1208.99 293.83 1209.94 C293.54 1210.66 293.26 1211.39 292.96 1212.13 C292.3 1212.13 291.64 1212.13 290.96 1212.13 C290.84 1212.85 290.73 1213.56 290.61 1214.3 C288.64 1222.81 283.39 1229.09 277.14 1234.91 C274.28 1237.81 272.24 1241 270.15 1244.48 C269.76 1245.02 269.36 1245.57 268.96 1246.13 C268.3 1246.13 267.64 1246.13 266.96 1246.13 C266.96 1246.79 266.96 1247.45 266.96 1248.13 C265.09 1249.61 265.09 1249.61 262.52 1251.32 C259.09 1253.64 255.8 1256.02 252.58 1258.63 C243.86 1265.47 234.25 1270.16 223.96 1274.13 C223.24 1274.43 222.52 1274.72 221.78 1275.03 C217.26 1276.86 212.76 1277.86 207.96 1278.7 C205.97 1278.94 205.97 1278.94 204.96 1280.13 C201.91 1280.24 198.89 1280.29 195.85 1280.3 C194.93 1280.3 194.01 1280.3 193.06 1280.31 C191.11 1280.31 189.16 1280.31 187.21 1280.31 C184.23 1280.32 181.26 1280.34 178.28 1280.35 C176.39 1280.36 174.49 1280.36 172.6 1280.36 C171.26 1280.37 171.26 1280.37 169.9 1280.38 C165.44 1280.37 162.03 1280.16 157.96 1278.13 C156.38 1277.74 154.8 1277.38 153.21 1277.07 C149.07 1276.24 149.07 1276.24 147.96 1275.13 C146.66 1274.78 145.34 1274.47 144.02 1274.19 C143.22 1274.02 142.41 1273.85 141.59 1273.67 C138.04 1272.94 134.49 1272.26 130.93 1271.59 C128.96 1271.13 128.96 1271.13 127.96 1270.13 C126.49 1269.76 125.01 1269.43 123.52 1269.13 C121.11 1268.64 119.16 1268.23 116.96 1267.13 C115.3 1266.93 113.63 1266.77 111.96 1266.63 C107.18 1266.24 107.18 1266.24 104.96 1265.13 C102.29 1264.76 99.63 1264.43 96.96 1264.13 C89.23 1263.26 89.23 1263.26 86.96 1262.13 C85.46 1261.99 83.96 1261.9 82.46 1261.85 C81.13 1261.79 81.13 1261.79 79.77 1261.73 C78.84 1261.7 77.91 1261.67 76.96 1261.63 C75.12 1261.56 73.29 1261.49 71.46 1261.41 C70.24 1261.37 70.24 1261.37 68.99 1261.32 C66.96 1261.13 66.96 1261.13 64.96 1260.13 C63.3 1260.03 61.65 1260 59.99 1260 C58.95 1260 57.92 1259.99 56.85 1259.99 C55.73 1259.99 54.61 1259.99 53.46 1260 C52.31 1260 51.16 1259.99 49.98 1259.99 C47.56 1259.99 45.13 1259.99 42.7 1260 C38.97 1260 35.25 1260 31.52 1259.99 C29.17 1259.99 26.81 1259.99 24.46 1260 C23.34 1259.99 22.22 1259.99 21.06 1259.99 C19.51 1260 19.51 1260 17.93 1260 C17.01 1260 16.1 1260 15.16 1260 C12.91 1259.99 12.91 1259.99 10.96 1261.13 C7.29 1261.36 3.63 1261.52 -0.04 1261.65 C-5.32 1261.88 -9.93 1262.78 -15.04 1264.13 C-16.93 1264.33 -18.83 1264.48 -20.73 1264.57 C-26.31 1264.96 -31.51 1266.04 -36.93 1267.37 C-39.75 1268.06 -42.57 1268.65 -45.42 1269.19 C-49.37 1269.96 -53.19 1270.97 -57.04 1272.13 C-60.92 1273.3 -64.76 1274.3 -68.73 1275.07 C-78.57 1276.24 -78.57 1276.24 -87.04 1280.13 C-89.8 1280.24 -92.52 1280.29 -95.28 1280.3 C-96.11 1280.3 -96.94 1280.3 -97.79 1280.31 C-99.55 1280.31 -101.32 1280.31 -103.08 1280.31 C-105.77 1280.32 -108.45 1280.33 -111.14 1280.35 C-112.85 1280.36 -114.57 1280.36 -116.28 1280.36 C-117.08 1280.37 -117.88 1280.37 -118.71 1280.38 C-122.98 1280.36 -126.12 1280 -130.04 1278.13 C-132.01 1277.65 -133.97 1277.16 -135.94 1276.69 C-138.71 1275.95 -141.34 1274.95 -144 1273.9 C-146.02 1273.14 -148.04 1272.55 -150.1 1271.94 C-160.77 1268.41 -170.5 1262.32 -179.04 1255.13 C-181.41 1253.3 -183.76 1251.67 -186.29 1250.07 C-187.2 1249.43 -188.11 1248.79 -189.04 1248.13 C-189.04 1247.47 -189.04 1246.81 -189.04 1246.13 C-189.63 1245.87 -190.23 1245.61 -190.84 1245.34 C-193.2 1244.04 -194.55 1242.74 -196.29 1240.69 C-196.81 1240.1 -197.33 1239.5 -197.87 1238.88 C-199.04 1237.13 -199.04 1237.13 -199.04 1234.13 C-200.03 1233.8 -201.02 1233.47 -202.04 1233.13 C-206.13 1228.66 -209.11 1223.4 -212.04 1218.13 C-212.72 1217.14 -213.4 1216.15 -214.1 1215.13 C-217.7 1209.57 -219.77 1203.31 -222.04 1197.13 C-223.86 1192.05 -223.86 1192.05 -226.04 1187.13 C-225.38 1187.13 -224.72 1187.13 -224.04 1187.13 C-224.5 1186.1 -224.95 1185.07 -225.42 1184 C-226.47 1181.58 -227.29 1179.31 -228.04 1176.75 C-228.37 1175.89 -228.7 1175.02 -229.04 1174.13 C-230.03 1173.8 -231.02 1173.47 -232.04 1173.13 C-232.04 1172.47 -232.04 1171.81 -232.04 1171.13 C-232.66 1170.99 -233.28 1170.84 -233.92 1170.69 C-236.04 1170.13 -236.04 1170.13 -238.04 1169.13 C-238.04 1168.47 -238.04 1167.81 -238.04 1167.13 C-238.76 1167.01 -239.49 1166.88 -240.23 1166.75 C-243 1166.14 -245.44 1165.24 -248.04 1164.13 C-248.04 1163.47 -248.04 1162.81 -248.04 1162.13 C-248.75 1162.02 -249.46 1161.92 -250.19 1161.81 C-253.4 1161.04 -255.84 1159.8 -258.73 1158.19 C-259.68 1157.67 -260.63 1157.14 -261.62 1156.6 C-264.04 1155.13 -264.04 1155.13 -266.04 1153.13 C-268.36 1152.41 -270.69 1151.74 -273.04 1151.13 C-273.04 1150.47 -273.04 1149.81 -273.04 1149.13 C-273.85 1148.73 -273.85 1148.73 -274.67 1148.32 C-278.85 1146.22 -278.85 1146.22 -283.04 1144.13 C-283.04 1143.47 -283.04 1142.81 -283.04 1142.13 C-283.81 1142.01 -284.57 1141.88 -285.35 1141.75 C-288.04 1141.13 -288.04 1141.13 -291.04 1139.13 C-291.04 1138.47 -291.04 1137.81 -291.04 1137.13 C-291.76 1137.03 -292.49 1136.92 -293.23 1136.82 C-296.32 1136.06 -298.46 1134.97 -301.04 1133.13 C-301.04 1132.47 -301.04 1131.81 -301.04 1131.13 C-302.37 1130.76 -302.37 1130.76 -303.73 1130.38 C-307.18 1129.08 -309.24 1127.49 -312.04 1125.13 C-313.35 1124.42 -314.68 1123.73 -316.04 1123.13 C-316.04 1122.47 -316.04 1121.81 -316.04 1121.13 C-317.5 1120.73 -317.5 1120.73 -318.98 1120.32 C-320.5 1119.73 -320.5 1119.73 -322.04 1119.13 C-322.37 1118.14 -322.7 1117.15 -323.04 1116.13 C-325.68 1114.67 -328.33 1113.43 -331.1 1112.25 C-333.88 1110.65 -335.81 1108.42 -338.04 1106.13 C-341.56 1102.86 -345.16 1100 -349.23 1097.44 C-356.03 1093.04 -362.16 1087.26 -367.71 1081.36 C-369.14 1079.87 -369.14 1079.87 -372.04 1079.13 C-372.04 1078.47 -372.04 1077.81 -372.04 1077.13 C-372.7 1077.13 -373.36 1077.13 -374.04 1077.13 C-376.04 1074.13 -376.04 1074.13 -377.04 1072.13 C-377.7 1072.13 -378.36 1072.13 -379.04 1072.13 C-379.04 1071.14 -379.04 1070.15 -379.04 1069.13 C-379.81 1069.03 -380.57 1068.92 -381.35 1068.82 C-384.23 1068.08 -385.27 1067.46 -387.04 1065.13 C-387.04 1064.47 -387.04 1063.81 -387.04 1063.13 C-387.7 1063.13 -388.36 1063.13 -389.04 1063.13 C-389.04 1062.47 -389.04 1061.81 -389.04 1061.13 C-390.03 1060.8 -391.02 1060.47 -392.04 1060.13 C-392.04 1059.47 -392.04 1058.81 -392.04 1058.13 C-392.7 1058.13 -393.36 1058.13 -394.04 1058.13 C-394.04 1057.47 -394.04 1056.81 -394.04 1056.13 C-395.69 1055.47 -397.34 1054.81 -399.04 1054.13 C-399.04 1053.14 -399.04 1052.15 -399.04 1051.13 C-400.69 1050.47 -402.34 1049.81 -404.04 1049.13 C-404.04 1048.14 -404.04 1047.15 -404.04 1046.13 C-405.03 1045.8 -406.02 1045.47 -407.04 1045.13 C-407.04 1044.47 -407.04 1043.81 -407.04 1043.13 C-407.7 1043.13 -408.36 1043.13 -409.04 1043.13 C-410.23 1041.67 -410.23 1041.67 -411.48 1039.75 C-413.26 1037.04 -414.23 1036 -417.04 1034.13 C-417.04 1033.47 -417.04 1032.81 -417.04 1032.13 C-417.7 1032.13 -418.36 1032.13 -419.04 1032.13 C-419.04 1031.14 -419.04 1030.15 -419.04 1029.13 C-420.03 1029.13 -421.02 1029.13 -422.04 1029.13 C-422.04 1028.47 -422.04 1027.81 -422.04 1027.13 C-422.7 1027.13 -423.36 1027.13 -424.04 1027.13 C-424.04 1026.14 -424.04 1025.15 -424.04 1024.13 C-425.03 1023.8 -426.02 1023.47 -427.04 1023.13 C-428.88 1021.29 -430.23 1019.5 -431.73 1017.38 C-433.84 1014.5 -435.91 1012.31 -438.73 1010.13 C-441.49 1007.93 -442.62 1006.23 -443.73 1002.88 C-444.6 999.1 -444.6 999.1 -447.04 997.94 C-447.7 997.67 -448.36 997.41 -449.04 997.13 C-452.04 992.84 -452.04 992.84 -452.04 990.13 C-452.66 989.84 -453.28 989.55 -453.92 989.25 C-456.04 988.13 -456.04 988.13 -458.04 986.13 C-458.04 985.14 -458.04 984.15 -458.04 983.13 C-458.7 982.8 -459.36 982.47 -460.04 982.13 C-460.7 981.8 -461.36 981.47 -462.04 981.13 C-462.19 980.35 -462.33 979.56 -462.48 978.75 C-463.11 975.83 -463.9 975.09 -466.04 973.13 C-466.04 972.47 -466.04 971.81 -466.04 971.13 C-466.7 971.13 -467.36 971.13 -468.04 971.13 C-479.04 957.48 -479.04 957.48 -479.04 951.13 C-479.7 951.13 -480.36 951.13 -481.04 951.13 C-481.54 949.64 -481.54 949.64 -482.04 948.13 C-482.7 947.8 -483.36 947.47 -484.04 947.13 C-484.98 945.24 -485.92 943.36 -486.83 941.46 C-488.53 938.2 -490.58 935.22 -492.67 932.21 C-493.97 930.23 -495.01 928.25 -496.04 926.13 C-496.58 925.28 -497.11 924.44 -497.67 923.57 C-499.04 921.13 -499.04 921.13 -499.04 918.13 C-499.7 918.13 -500.36 918.13 -501.04 918.13 C-502.3 915.22 -503.04 913.33 -503.04 910.13 C-504.03 909.8 -505.02 909.47 -506.04 909.13 C-506.92 907.32 -506.92 907.32 -507.6 905.13 C-508.25 902.98 -508.25 902.98 -509.04 901.13 C-509.7 900.8 -510.36 900.47 -511.04 900.13 C-511.89 897.9 -512.51 895.65 -513.16 893.36 C-514.12 890.94 -515.18 889.89 -517.04 888.13 C-522.04 877.53 -522.04 877.53 -522.04 873.13 C-522.7 872.8 -523.36 872.47 -524.04 872.13 C-525.42 869.81 -526.22 867.58 -527.04 865 C-527.84 862.04 -527.84 862.04 -530.04 860.13 C-530.49 858.55 -530.93 856.97 -531.35 855.38 C-533.35 848.89 -536.33 842.67 -539.17 836.5 C-540.96 832.53 -542.2 828.5 -543.33 824.29 C-544.02 821.87 -544.02 821.87 -546.04 819.13 C-546.04 818.47 -546.04 817.81 -546.04 817.13 C-546.95 814.2 -547.95 811.35 -549.1 808.5 C-549.95 806.37 -550.5 804.35 -551.04 802.13 C-551.33 801.3 -551.62 800.48 -551.92 799.63 C-553.25 795.48 -554.26 791.28 -555.26 787.03 C-556 784.28 -556.98 781.76 -558.04 779.13 C-558.29 777.61 -558.29 777.61 -558.54 776.07 C-559.01 773.31 -559.78 771.57 -561.04 769.13 C-561.04 768.14 -561.04 767.15 -561.04 766.13 C-561.48 764.71 -561.48 764.71 -561.92 763.25 C-563.32 758.63 -563.85 753.89 -564.48 749.12 C-565 746.34 -565.79 744.61 -567.04 742.13 C-567.46 740.08 -567.81 738.01 -568.1 735.94 C-568.27 734.79 -568.44 733.64 -568.61 732.46 C-569.06 729.02 -569.43 725.59 -569.7 722.13 C-569.98 720.02 -569.98 720.02 -571.04 717.79 C-572.23 714.63 -572.42 711.88 -572.6 708.5 C-572.8 705.09 -572.96 702.38 -574.04 699.13 C-574.32 695.39 -574.49 691.64 -574.66 687.89 C-574.88 684.23 -574.88 684.23 -576.04 681.29 C-577.09 677.96 -577.34 675.23 -577.42 671.74 C-577.46 670.56 -577.49 669.37 -577.52 668.15 C-577.55 666.93 -577.58 665.7 -577.6 664.44 C-577.66 662 -577.73 659.56 -577.8 657.12 C-577.82 656.04 -577.84 654.96 -577.87 653.85 C-577.93 651.03 -577.93 651.03 -579.04 648.13 C-579.13 645.97 -579.16 643.8 -579.16 641.64 C-579.16 640.98 -579.16 640.33 -579.16 639.66 C-579.16 637.5 -579.15 635.34 -579.14 633.18 C-579.14 631.68 -579.14 630.18 -579.14 628.69 C-579.13 624.75 -579.12 620.81 -579.11 616.86 C-579.1 612.84 -579.1 608.82 -579.09 604.8 C-579.08 596.91 -579.06 589.02 -579.04 581.13 C-578.71 581.13 -578.38 581.13 -578.04 581.13 C-578.02 580.23 -578 579.33 -577.98 578.41 C-577.9 575.08 -577.82 571.75 -577.72 568.42 C-577.69 566.98 -577.65 565.54 -577.62 564.1 C-577.57 562.03 -577.52 559.96 -577.46 557.89 C-577.42 556.64 -577.39 555.39 -577.36 554.11 C-577.04 551.13 -577.04 551.13 -575.04 549.13 C-574.69 547.13 -574.69 547.13 -574.66 544.85 C-574.63 544.01 -574.59 543.16 -574.56 542.3 C-574.53 541.42 -574.51 540.54 -574.48 539.63 C-574.42 537.89 -574.36 536.15 -574.29 534.41 C-574.26 533.64 -574.24 532.87 -574.22 532.07 C-574.04 530.13 -574.04 530.13 -573.04 528.13 C-572.76 524.79 -572.59 521.45 -572.42 518.1 C-572.04 515.13 -572.04 515.13 -570.04 513.13 C-569.61 510.07 -569.61 510.07 -569.48 506.63 C-569.14 500.32 -569.14 500.32 -568.04 498.13 C-567.77 495.54 -567.6 492.94 -567.42 490.34 C-567.3 489.61 -567.17 488.88 -567.04 488.13 C-566.38 487.8 -565.72 487.47 -565.04 487.13 C-564.61 484.58 -564.61 484.58 -564.48 481.63 C-564.14 476.23 -564.14 476.23 -563.04 475.13 C-562.76 472.81 -562.59 470.49 -562.42 468.16 C-562.3 467.49 -562.17 466.82 -562.04 466.13 C-561.38 465.8 -560.72 465.47 -560.04 465.13 C-559.57 462.77 -559.57 462.77 -559.42 460.07 C-559.34 459.15 -559.27 458.23 -559.19 457.28 C-559.14 456.57 -559.09 455.86 -559.04 455.13 C-558.38 455.13 -557.72 455.13 -557.04 455.13 C-557.04 452.82 -557.04 450.51 -557.04 448.13 C-556.38 447.8 -555.72 447.47 -555.04 447.13 C-554.61 445.04 -554.61 445.04 -554.48 442.63 C-554.14 438.23 -554.14 438.23 -553.04 437.13 C-552.67 434.8 -552.34 432.47 -552.04 430.13 C-551.38 430.13 -550.72 430.13 -550.04 430.13 C-549.71 427.49 -549.38 424.85 -549.04 422.13 C-548.71 422.13 -548.38 422.13 -548.04 422.13 C-547.71 419.82 -547.38 417.51 -547.04 415.13 C-546.38 415.13 -545.72 415.13 -545.04 415.13 C-544.71 412.82 -544.38 410.51 -544.04 408.13 C-543.71 408.13 -543.38 408.13 -543.04 408.13 C-542.92 407 -542.79 405.86 -542.67 404.69 C-542.46 403.52 -542.25 402.34 -542.04 401.13 C-541.38 400.8 -540.72 400.47 -540.04 400.13 C-539.33 397.81 -538.67 395.47 -538.04 393.13 C-537.39 391.46 -536.72 389.79 -536.04 388.13 C-535.36 386.13 -534.69 384.13 -534.04 382.13 C-533.71 382.13 -533.38 382.13 -533.04 382.13 C-532.61 380.55 -532.61 380.55 -532.17 378.94 C-531.27 375.9 -530.26 373.05 -529.04 370.13 C-528.71 369.14 -528.38 368.15 -528.04 367.13 C-527.38 366.14 -526.72 365.15 -526.04 364.13 C-525 362.05 -524.09 359.95 -523.17 357.82 C-521.67 354.42 -519.98 351.3 -518.04 348.13 C-517.55 346.89 -517.55 346.89 -517.04 345.63 C-515.96 342.93 -514.54 340.62 -513.04 338.13 C-512.55 336.89 -512.55 336.89 -512.04 335.63 C-510.96 332.92 -509.57 330.61 -508.04 328.13 C-507.36 326.8 -506.69 325.47 -506.04 324.13 C-505.71 323.47 -505.38 322.81 -505.04 322.13 C-504.04 319.8 -503.04 317.46 -502.04 315.13 C-501.38 315.13 -500.72 315.13 -500.04 315.13 C-499.85 314.49 -499.66 313.85 -499.46 313.2 C-499.07 311.96 -499.07 311.96 -498.67 310.69 C-498.41 309.87 -498.16 309.04 -497.89 308.2 C-497.04 306.13 -497.04 306.13 -495.04 305.13 C-494.35 303.48 -493.68 301.81 -493.04 300.13 C-492.38 299.14 -491.72 298.15 -491.04 297.13 C-490.38 297.13 -489.72 297.13 -489.04 297.13 C-488.86 296.26 -488.86 296.26 -488.67 295.38 C-487.78 292.17 -486.49 289.72 -484.48 287.07 C-482.86 285.09 -482.86 285.09 -482.04 282.13 C-481.05 282.13 -480.06 282.13 -479.04 282.13 C-478.86 280.98 -478.86 280.98 -478.67 279.82 C-477.94 276.68 -476.5 274.72 -474.54 272.19 C-473.12 270.24 -472.06 268.32 -471.04 266.13 C-470.38 266.46 -469.72 266.79 -469.04 267.13 C-468.86 265.98 -468.86 265.98 -468.67 264.82 C-467.57 260.1 -464.12 255.85 -461.04 252.13 C-460.38 252.13 -459.72 252.13 -459.04 252.13 C-458.98 251.41 -458.92 250.69 -458.85 249.94 C-457.79 246.26 -455.82 244.7 -453.04 242.13 C-452.38 241.14 -451.72 240.15 -451.04 239.13 C-447.76 234.2 -447.76 234.2 -446.04 232.13 C-445.38 232.13 -444.72 232.13 -444.04 232.13 C-443.71 231.14 -443.38 230.15 -443.04 229.13 C-441.47 225.11 -438.6 222.49 -435.54 219.57 C-432.76 216.88 -430.2 214.37 -428.04 211.13 C-427.57 210.68 -427.09 210.22 -426.6 209.75 C-424.92 208.13 -424.92 208.13 -423.7 205.8 C-421.99 203.05 -420.17 200.99 -417.88 198.7 C-417.09 197.91 -416.29 197.11 -415.48 196.29 C-414.65 195.47 -413.83 194.66 -412.98 193.82 C-412.15 192.98 -411.32 192.14 -410.47 191.28 C-409.68 190.49 -408.89 189.7 -408.07 188.89 C-407.34 188.17 -406.62 187.45 -405.87 186.7 C-404.04 185.13 -404.04 185.13 -402.04 185.13 C-401.7 184.05 -401.7 184.05 -401.35 182.94 C-399.76 179.53 -397.89 177.57 -395.04 175.13 C-393.71 174.79 -392.38 174.45 -391.04 174.13 C-390.61 173.26 -390.61 173.26 -390.18 172.37 C-387.89 167.86 -383.78 164.54 -380.23 161 C-379.42 160.18 -378.61 159.36 -377.78 158.51 C-377 157.72 -376.21 156.93 -375.4 156.12 C-374.68 155.4 -373.97 154.69 -373.23 153.95 C-370.91 152.02 -368.85 151.15 -366.04 150.13 C-365.02 149.15 -364.02 148.15 -363.04 147.13 C-362.38 147.13 -361.72 147.13 -361.04 147.13 C-360.65 146.25 -360.65 146.25 -360.26 145.36 C-358.96 142.97 -357.54 141.4 -355.6 139.5 C-354.71 138.62 -354.71 138.62 -353.8 137.72 C-351.13 135.31 -349.7 134.13 -346.04 134.13 C-345.77 133.53 -345.51 132.93 -345.23 132.32 C-343.33 128.82 -341.84 127.4 -338.04 126.13 C-335.28 124.04 -332.67 121.81 -330.04 119.57 C-326.41 116.61 -323.36 114.52 -318.85 113.19 C-315.92 112.42 -315.92 112.42 -314.85 110.07 C-314.59 109.43 -314.32 108.79 -314.04 108.13 C-312.56 107.63 -312.56 107.63 -311.04 107.13 C-311.04 106.47 -311.04 105.81 -311.04 105.13 C-310.31 104.86 -309.58 104.59 -308.82 104.31 C-306.13 103.17 -303.95 101.86 -301.54 100.19 C-299.09 98.51 -296.66 96.9 -294.1 95.38 C-291.92 94.17 -291.92 94.17 -290.04 92.13 C-288.72 92.13 -287.4 92.13 -286.04 92.13 C-285.71 91.14 -285.38 90.15 -285.04 89.13 C-283.07 88.07 -281.06 87.08 -279.04 86.13 C-277.03 84.82 -275.03 83.48 -273.04 82.13 C-271.67 81.2 -270.3 80.29 -268.92 79.38 C-268.28 78.95 -267.63 78.52 -266.97 78.08 C-265.04 77.13 -265.04 77.13 -261.04 77.13 C-261.04 76.47 -261.04 75.81 -261.04 75.13 C-257.72 73.71 -254.6 72.74 -251.04 72.13 C-251.04 71.47 -251.04 70.81 -251.04 70.13 C-250.09 69.68 -249.14 69.22 -248.17 68.75 C-245.04 67.33 -245.04 67.33 -243.04 65.13 C-241.38 64.45 -239.71 63.79 -238.04 63.13 C-235.29 61.58 -232.57 59.99 -229.86 58.37 C-226.7 56.98 -224.46 56.9 -221.04 57.13 C-221.04 56.47 -221.04 55.81 -221.04 55.13 C-217.72 53.71 -214.6 52.74 -211.04 52.13 C-211.04 51.47 -211.04 50.81 -211.04 50.13 C-209.06 49.47 -207.08 48.81 -205.04 48.13 C-205.04 47.8 -205.04 47.47 -205.04 47.13 C-204.01 46.86 -202.98 46.59 -201.92 46.32 C-199.32 45.59 -197.41 44.79 -194.98 43.5 C-191.74 41.99 -189.58 41.88 -186.04 42.13 C-186.04 41.47 -186.04 40.81 -186.04 40.13 C-183.73 39.47 -181.42 38.81 -179.04 38.13 C-179.04 37.8 -179.04 37.47 -179.04 37.13 C-178.2 36.88 -177.35 36.62 -176.48 36.36 C-170.24 34.47 -164.11 32.5 -158.04 30.13 C-150.51 27.21 -142.89 25.06 -135.04 23.13 C-135.04 22.8 -135.04 22.47 -135.04 22.13 C-132.07 22.13 -129.1 22.13 -126.04 22.13 C-126.04 21.47 -126.04 20.81 -126.04 20.13 C-122.74 19.47 -119.44 18.81 -116.04 18.13 C-116.04 17.8 -116.04 17.47 -116.04 17.13 C-114.98 17.06 -114.98 17.06 -113.89 16.98 C-112.97 16.91 -112.05 16.83 -111.1 16.75 C-110.19 16.68 -109.27 16.62 -108.33 16.54 C-107.57 16.41 -106.82 16.27 -106.04 16.13 C-105.71 15.47 -105.38 14.81 -105.04 14.13 C-103.01 13.75 -103.01 13.75 -100.54 13.57 C-97.49 13.55 -97.49 13.55 -95.04 12.13 C-92.23 11.85 -89.43 11.68 -86.61 11.51 C-83.88 11.37 -83.88 11.37 -82.04 9.13 C-79 8.72 -79 8.72 -75.42 8.5 C-74.23 8.43 -73.04 8.35 -71.82 8.28 C-70.9 8.23 -69.98 8.18 -69.04 8.13 C-69.04 7.8 -69.04 7.47 -69.04 7.13 C-67.69 7.06 -67.69 7.06 -66.3 6.98 C-65.12 6.91 -63.94 6.83 -62.73 6.75 C-60.97 6.65 -60.97 6.65 -59.18 6.54 C-55.88 6.34 -55.88 6.34 -53.04 4.13 C-50.99 3.84 -50.99 3.84 -48.66 3.79 C-47.82 3.76 -46.99 3.73 -46.12 3.7 C-44.36 3.65 -42.59 3.61 -40.83 3.56 C-39.57 3.52 -39.57 3.52 -38.29 3.47 C-37.14 3.45 -37.14 3.45 -35.97 3.42 C-33.8 3.29 -33.8 3.29 -32.04 1.13 C-30.03 0.92 -30.03 0.92 -27.58 0.97 C-26.25 0.99 -26.25 0.99 -24.9 1 C-23.98 1.02 -23.06 1.04 -22.1 1.07 C-20.28 1.1 -18.46 1.13 -16.64 1.16 C-15.83 1.17 -15.02 1.19 -14.19 1.21 C-9.45 1.03 -4.89 -0.01 0 0 Z " fill="#FAD73B" transform="translate(601.0419921875,-0.12939453125)"/>
<path d="M0 0 C1.23 0.42 2.46 0.84 3.72 1.27 C19.7 7.2 33.84 16.3 47 27 C47.67 27.5 48.33 28 49.02 28.52 C55.1 33.1 60.51 38.16 65.88 43.56 C66.75 44.44 67.63 45.32 68.53 46.23 C74.34 52.14 79.73 58.17 84.66 64.83 C86.15 66.85 87.68 68.83 89.28 70.76 C102.78 87.25 113.55 106.97 123 126 C123.56 127.11 123.56 127.11 124.14 128.24 C153.64 186.48 167.13 251.61 171.81 316.31 C171.88 317.19 171.94 318.06 172.01 318.96 C172.79 330 173.17 340.94 173 352 C172.98 353.31 172.97 354.62 172.95 355.98 C172.52 385.83 170.15 415.07 165.5 444.56 C165.35 445.52 165.2 446.48 165.05 447.46 C164.61 450.21 164.17 452.95 163.72 455.69 C163.59 456.5 163.46 457.31 163.33 458.14 C162.4 463.64 160.9 468.76 159 474 C154.98 474 153.95 472.54 150.94 469.94 C145.81 465.63 140.57 461.71 135 458 C134.1 457.4 133.21 456.8 132.28 456.19 C80.97 422.75 11.01 414.74 -48.88 414.81 C-49.76 414.81 -50.64 414.81 -51.55 414.81 C-120.43 414.91 -202.26 426.64 -255 475 C-263.44 467.41 -263.38 452.56 -265 441.81 C-265.13 440.96 -265.26 440.11 -265.39 439.23 C-269.28 413.58 -271.49 387.94 -272 362 C-272.03 360.97 -272.05 359.95 -272.08 358.89 C-274 282.61 -259.6 198.04 -224 130 C-223.31 128.62 -222.62 127.23 -221.94 125.84 C-217.23 116.35 -212.5 107.13 -206.52 98.37 C-204.92 95.87 -203.56 93.32 -202.19 90.69 C-197.11 81.2 -190.11 73 -183.24 64.77 C-182.04 63.29 -180.86 61.81 -179.76 60.26 C-175.32 54.08 -170.13 48.8 -164.75 43.44 C-163.86 42.53 -162.97 41.62 -162.05 40.69 C-157.1 35.73 -152.13 31.39 -146.26 27.54 C-143.82 25.88 -141.61 24.05 -139.38 22.12 C-133.36 17.24 -126.71 13.64 -119.89 10.01 C-118.26 9.14 -116.65 8.24 -115.04 7.34 C-80 -11.5 -37.17 -12.78 0 0 Z " fill="#3A4146" transform="translate(689,704)"/>
<path d="M0 0 C30.31 -0.59 60.9 5.82 88.57 18.12 C89.23 18.41 89.89 18.7 90.57 18.99 C115.46 29.99 137.21 45 156.57 64.12 C157.45 64.98 157.45 64.98 158.36 65.87 C193.35 100.06 218.33 144.36 226.19 192.99 C226.32 193.76 226.44 194.53 226.57 195.32 C233.78 241.48 225.04 288.99 197.89 327.3 C184.74 345.29 168.29 360.15 149.57 372.12 C148.77 372.63 147.97 373.14 147.14 373.67 C133.69 382.03 119.5 388 104.57 393.12 C103.49 393.5 102.42 393.88 101.32 394.27 C41.16 414.27 -34.7 408.91 -91.49 381.1 C-101.93 375.81 -112.07 370.17 -121.43 363.12 C-122.07 362.66 -122.7 362.21 -123.35 361.74 C-136.95 351.87 -149.32 340.57 -159.43 327.12 C-160.14 326.2 -160.85 325.28 -161.58 324.33 C-172.82 309.06 -179.98 291.46 -184.43 273.12 C-184.61 272.41 -184.79 271.71 -184.97 270.98 C-198.82 213.04 -172.38 136.89 -142.87 86.99 C-141.44 84.67 -139.95 82.39 -138.43 80.12 C-137.99 79.45 -137.54 78.77 -137.08 78.08 C-130.2 67.84 -122.74 58.25 -114.43 49.12 C-113.76 48.37 -113.09 47.63 -112.39 46.86 C-85.68 18.78 -45.04 1.76 -6.59 0.17 C-4.39 0.13 -2.19 0.07 0 0 Z " fill="#FBFDFD" transform="translate(862.43359375,194.8828125)"/>
<path d="M0 0 C0.77 0.55 1.53 1.09 2.32 1.65 C15.62 11.7 26.98 24.04 36 38 C36.67 39 37.34 40 38.03 41.02 C61.58 77.38 70 121.53 74 164 C74.15 165.6 74.15 165.6 74.31 167.23 C78.33 212 68.55 255.24 39.75 290.37 C37.24 293.32 34.64 296.17 32 299 C31.39 299.66 30.77 300.33 30.14 301.01 C-2.33 335.72 -46.68 357.51 -93 367 C-94.22 367.25 -94.22 367.25 -95.46 367.51 C-98.22 368.06 -100.98 368.6 -103.75 369.12 C-104.57 369.28 -105.39 369.44 -106.24 369.61 C-122.51 372.55 -138.87 373.35 -155.38 373.25 C-156.27 373.25 -157.16 373.24 -158.08 373.24 C-171.46 373.18 -184.75 373.03 -198 371 C-198.95 370.85 -199.9 370.71 -200.88 370.56 C-223.56 366.91 -245.92 360.3 -266 349 C-267.54 348.17 -267.54 348.17 -269.1 347.33 C-287.48 337.12 -304.57 323.02 -317 306 C-317.58 305.21 -318.15 304.42 -318.75 303.61 C-340.27 271.95 -347.68 231.5 -341 194 C-334 159.07 -320.96 125.03 -300 96 C-299.23 94.92 -299.23 94.92 -298.44 93.82 C-291.72 84.44 -284.93 75.4 -277 67 C-275.89 65.71 -274.79 64.42 -273.69 63.12 C-266.6 55.02 -259 47.48 -250.47 40.91 C-247.9 38.92 -245.42 36.84 -242.94 34.75 C-208.75 6.84 -167.22 -12.41 -124 -21 C-123.11 -21.18 -122.22 -21.36 -121.3 -21.54 C-81.02 -29.17 -33.96 -24.52 0 0 Z " fill="#FBFDFD" transform="translate(530,223)"/>
<path d="M0 0 C2.17 0.51 4 1 6 2 C6 2.99 6 3.98 6 5 C6.99 5 7.98 5 9 5 C9 5.66 9 6.32 9 7 C9.99 7.33 10.98 7.66 12 8 C12 8.66 12 9.32 12 10 C14.64 11.32 17.28 12.64 20 14 C20 14.66 20 15.32 20 16 C20.59 16.09 21.19 16.18 21.8 16.27 C24.56 17.19 25.45 18.36 27.25 20.62 C30.3 24.29 33.57 27.32 37.2 30.39 C39.43 32.38 41.24 34.58 43 37 C42.67 37.66 42.34 38.32 42 39 C43.11 39.09 43.11 39.09 44.25 39.19 C47.89 40.26 48.79 41.96 51 45 C52.65 46.68 54.32 48.35 56 50 C59.67 53.67 63.33 57.33 67 61 C67.87 61.86 68.74 62.73 69.64 63.62 C71.57 65.56 73.44 67.51 75.25 69.56 C75.75 70.12 76.25 70.68 76.77 71.25 C78.12 73.16 78.58 74.72 79 77 C79.66 77 80.32 77 81 77 C81 77.99 81 78.98 81 80 C81.99 80 82.98 80 84 80 C84 80.66 84 81.32 84 82 C84.66 82.33 85.32 82.66 86 83 C88.06 85.3 90.04 87.62 92 90 C92.69 90.84 93.39 91.68 94.1 92.55 C97.13 96.27 99.89 99.68 102 104 C102.66 104.66 103.32 105.32 104 106 C105.05 107.16 106.09 108.32 107.12 109.5 C107.66 110.11 108.2 110.72 108.76 111.34 C110 113 110 113 110 115 C110.66 115 111.32 115 112 115 C112.34 115.63 112.68 116.25 113.02 116.9 C113.47 117.72 113.92 118.53 114.38 119.38 C114.82 120.19 115.26 121 115.71 121.84 C116.94 124.11 116.94 124.11 119 126 C119.71 127.65 120.38 129.32 121 131 C121.66 131 122.32 131 123 131 C123.96 132.75 124.92 134.5 125.88 136.25 C126.41 137.22 126.94 138.2 127.49 139.2 C128.7 141.45 129.88 143.71 131 146 C131.66 146 132.32 146 133 146 C133.51 147.07 133.51 147.07 134.02 148.15 C134.69 149.53 134.69 149.53 135.38 150.94 C135.82 151.85 136.26 152.77 136.71 153.71 C137.79 156.13 137.79 156.13 140 157 C141 159.14 141 159.14 142 161.81 C143.19 164.97 144.44 168.01 146 171 C146.66 171 147.32 171 148 171 C148.82 172.56 149.63 174.12 150.44 175.69 C150.89 176.56 151.34 177.43 151.81 178.32 C152.96 180.91 153.56 183.21 154 186 C154.66 186 155.32 186 156 186 C159 192.63 159 192.63 159 196 C159.66 196 160.32 196 161 196 C161.43 197.21 161.43 197.21 161.88 198.44 C162.73 201.13 162.73 201.13 165 202 C165.85 204.29 165.85 204.29 166.62 207.06 C166.89 207.98 167.15 208.9 167.41 209.85 C167.7 210.91 167.7 210.91 168 212 C168.66 212 169.32 212 170 212 C170.31 212.92 170.63 213.84 170.95 214.78 C173.27 221.42 175.66 227.8 179 234 C179.33 234.66 179.66 235.32 180 236 C179.67 236.66 179.34 237.32 179 238 C179.66 238 180.32 238 181 238 C181 239.65 181 241.3 181 243 C181.66 243 182.32 243 183 243 C185 246 185 246 184.62 248.69 C184.32 249.83 184.32 249.83 184 251 C184.66 251 185.32 251 186 251 C188.88 257.62 188.88 257.62 190 261 C189.67 261.66 189.34 262.32 189 263 C189.66 263 190.32 263 191 263 C191 264.65 191 266.3 191 268 C191.66 268 192.32 268 193 268 C193.27 269.15 193.54 270.31 193.81 271.5 C194.72 275.13 195.91 278.56 197.27 282.04 C198 283.99 198.58 285.93 199.12 287.94 C199.69 290.85 199.69 290.85 201 292 C201.14 293.11 201.29 294.23 201.44 295.38 C201.75 299.09 201.75 299.09 204 302 C204.35 304 204.68 306 205 308 C205.62 309.68 206.28 311.36 207 313 C207.33 313 207.66 313 208 313 C208.05 313.75 208.1 314.5 208.15 315.27 C208.26 316.74 208.26 316.74 208.38 318.25 C208.44 319.22 208.51 320.2 208.59 321.2 C208.99 323.94 209.68 325.61 211 328 C212.67 333.59 213.33 338.86 213.66 344.68 C213.79 347.19 213.79 347.19 216 349 C216.38 351.31 216.38 351.31 216.56 354 C216.77 357.64 216.77 357.64 218 361 C218.27 363.79 218.45 366.58 218.62 369.37 C218.84 372.23 218.84 372.23 221 375 C221.27 377.35 221.45 379.7 221.56 382.06 C221.63 386.7 221.63 386.7 223 391 C223.23 394.38 223.39 397.76 223.52 401.15 C223.7 404.9 223.87 406.8 226 410 C226.3 412.62 226.3 412.62 226.38 415.73 C226.41 416.84 226.45 417.95 226.48 419.1 C226.52 420.85 226.52 420.85 226.56 422.62 C226.62 424.93 226.69 427.23 226.75 429.54 C226.79 431.07 226.79 431.07 226.83 432.64 C226.74 434.96 226.74 434.96 228 436 C228.1 438.7 228.14 441.38 228.13 444.08 C228.13 445.35 228.13 445.35 228.13 446.65 C228.14 449.47 228.14 452.28 228.13 455.09 C228.13 457.04 228.13 458.99 228.14 460.93 C228.14 465.02 228.14 469.11 228.13 473.19 C228.12 478.44 228.13 483.69 228.13 488.94 C228.14 492.96 228.14 496.98 228.13 501 C228.13 502.94 228.13 504.88 228.14 506.81 C228.14 509.51 228.13 512.21 228.13 514.92 C228.13 515.72 228.13 516.53 228.14 517.37 C228.11 522.89 228.11 522.89 227 524 C226.87 525.73 226.8 527.47 226.75 529.21 C226.72 530.27 226.69 531.33 226.65 532.42 C226.59 534.67 226.54 536.92 226.48 539.17 C226.45 540.23 226.41 541.3 226.38 542.39 C226.35 543.37 226.33 544.35 226.3 545.36 C225.99 548.07 225.24 549.62 224 552 C223.66 554.09 223.66 554.09 223.62 556.26 C223.59 557.05 223.55 557.84 223.52 558.65 C223.49 559.47 223.46 560.28 223.44 561.12 C223.12 569.76 223.12 569.76 222 572 C221.72 575.05 221.55 578.1 221.38 581.15 C221 584 221 584 219 587 C218.58 589.71 218.58 589.71 218.44 592.62 C218.1 597.9 218.1 597.9 217 599 C216.77 600.85 216.59 602.7 216.44 604.56 C216.31 606.08 216.31 606.08 216.18 607.63 C216.12 608.41 216.06 609.19 216 610 C215.34 610 214.68 610 214 610 C213.94 610.93 213.88 611.85 213.82 612.81 C213.73 614.01 213.65 615.2 213.56 616.44 C213.48 617.63 213.4 618.83 213.32 620.06 C213 623 213 623 212 624 C211.77 626 211.55 627.99 211.38 629.99 C211 632 211 632 209 635 C208.8 636.92 208.6 638.84 208.41 640.77 C207.96 643.22 207.14 645.13 206.06 647.38 C204.12 651.44 203.21 655.29 202.43 659.72 C201.89 662.59 200.98 665.25 200 668 C199.69 669.11 199.38 670.23 199.06 671.38 C198.13 674.54 197.05 677.59 195.86 680.67 C194.11 685.4 192.57 690.21 191 695 C190.34 695 189.68 695 189 695 C189.06 696.39 189.06 696.39 189.12 697.81 C189 701 189 701 187 704 C186.31 705.99 185.64 707.99 185 710 C184.18 712.19 183.35 714.38 182.5 716.56 C182.08 717.66 181.65 718.75 181.22 719.88 C180.16 722.59 179.09 725.3 178 728 C177.34 728 176.68 728 176 728 C175.88 728.72 175.75 729.44 175.62 730.19 C175.01 732.96 174.12 735.4 173 738 C172.34 738 171.68 738 171 738 C171 739.65 171 741.3 171 743 C170.34 743 169.68 743 169 743 C168.92 744.07 168.84 745.14 168.75 746.25 C167.92 750.39 167.02 751.26 164 754 C163.21 756.14 163.21 756.14 163 758 C162.34 758 161.68 758 161 758 C160.89 758.72 160.77 759.44 160.65 760.19 C159.97 763.11 158.96 765.35 157.56 768 C155.85 771.28 154.33 774.54 153 778 C152.34 778 151.68 778 151 778 C150.92 778.7 150.84 779.4 150.75 780.12 C149.82 783.68 148.05 785.96 146 789 C144.87 791.07 143.77 793.15 142.69 795.25 C139.93 800.46 136.89 805.24 133.38 809.98 C131.83 812.05 131.83 812.05 131 815 C130.34 815 129.68 815 129 815 C128.73 815.91 128.46 816.82 128.19 817.75 C127.07 820.81 125.98 822.48 124 825 C123.49 825.71 122.99 826.41 122.46 827.14 C121.96 827.84 121.46 828.53 120.94 829.25 C120.43 829.96 119.92 830.66 119.4 831.39 C118.94 831.92 118.48 832.45 118 833 C117.34 833 116.68 833 116 833 C115.91 833.71 115.83 834.41 115.74 835.14 C114.83 838.65 113.27 840.84 111.12 843.75 C110.08 845.2 110.08 845.2 109.01 846.67 C107 849 107 849 104 850 C103.77 850.85 103.55 851.69 103.31 852.56 C101.67 856.86 99.22 859.01 95.88 862.07 C94.01 863.99 93.11 865.59 92 868 C89.89 870.65 87.81 873.22 85.38 875.56 C83.87 877.01 83.87 877.01 82.82 879.19 C80.08 883.42 76.46 886.63 72.83 890.1 C69.34 893.48 66.57 896.84 64 901 C63.34 901.99 62.68 902.98 62 904 C61.34 904 60.68 904 60 904 C60 904.66 60 905.32 60 906 C59.34 906 58.68 906 58 906 C57.67 906.99 57.34 907.98 57 909 C56.34 909 55.68 909 55 909 C55 909.66 55 910.32 55 911 C54.34 911 53.68 911 53 911 C52.67 911.99 52.34 912.98 52 914 C51.34 914 50.68 914 50 914 C49.6 914.96 49.6 914.96 49.19 915.94 C48 918 48 918 45 919 C45 919.66 45 920.32 45 921 C44.34 921 43.68 921 43 921 C42.67 921.99 42.34 922.98 42 924 C41.34 924 40.68 924 40 924 C40 924.66 40 925.32 40 926 C39.34 926 38.68 926 38 926 C37.67 926.99 37.34 927.98 37 929 C36.34 929 35.68 929 35 929 C35 929.66 35 930.32 35 931 C33.51 932.03 33.51 932.03 31.47 933.16 C26.77 935.98 23.25 939.48 19.5 943.44 C15.18 947.97 10.88 952.04 5.79 955.7 C4.08 956.94 2.48 958.25 0.88 959.62 C-2 962 -2 962 -4.94 963.94 C-7.97 965.98 -10.64 968.21 -13.39 970.61 C-18.45 975 -18.45 975 -21 975 C-21 975.66 -21 976.32 -21 977 C-21.91 977.41 -22.82 977.83 -23.75 978.25 C-26.85 979.92 -28.58 981.51 -31 984 C-32.66 985.01 -34.33 986.01 -36 987 C-36.77 987.84 -36.77 987.84 -37.56 988.69 C-39 990 -39 990 -43 990 C-43.33 990.99 -43.66 991.98 -44 993 C-45.74 994.32 -45.74 994.32 -47.88 995.56 C-48.92 996.18 -48.92 996.18 -49.99 996.82 C-50.65 997.21 -51.32 997.6 -52 998 C-52.99 998.66 -53.98 999.32 -55 1000 C-55.99 1000 -56.98 1000 -58 1000 C-58.33 1000.99 -58.66 1001.98 -59 1003 C-61.73 1004.68 -61.73 1004.68 -65.19 1006.44 C-68.68 1008.22 -71.99 1009.99 -75.25 1012.18 C-77.96 1013.98 -79.8 1014.62 -83 1015 C-83.33 1015.99 -83.66 1016.98 -84 1018 C-86.2 1019.32 -86.2 1019.32 -89.12 1020.69 C-94.04 1023.04 -98.84 1025.51 -103.62 1028.12 C-109.27 1031.18 -114.95 1033.83 -121 1036 C-121.22 1030.07 -120.8 1024.33 -120.12 1018.44 C-120.05 1017.73 -119.97 1017.02 -119.89 1016.29 C-119.8 1015.6 -119.72 1014.9 -119.63 1014.18 C-119.56 1013.57 -119.49 1012.96 -119.41 1012.33 C-119.05 1010.29 -118.55 1008.28 -118.03 1006.28 C-116.94 1002.01 -116.37 997.78 -115.93 993.4 C-115.84 992.56 -115.76 991.71 -115.67 990.85 C-115.39 988.02 -115.13 985.2 -114.88 982.38 C-114.78 981.39 -114.69 980.41 -114.6 979.4 C-113.32 965.1 -112.85 950.89 -112.88 936.54 C-112.88 935.75 -112.89 934.96 -112.89 934.14 C-112.91 926.21 -112.98 918.28 -113.11 910.35 C-113.16 907.36 -113.19 904.36 -113.22 901.37 C-113.25 899.3 -113.3 897.23 -113.35 895.15 C-113.44 886.75 -112.89 883.06 -107.1 877.02 C-102.28 872.83 -97.31 868.91 -92.22 865.06 C-79.1 855.03 -66.62 843.73 -55 832 C-39.38 816.38 -39.38 816.38 -37.63 814.63 C-36.18 813.18 -34.73 811.72 -33.27 810.27 C-31.93 808.93 -30.58 807.59 -29.23 806.26 C-24.92 802.03 -20.93 797.59 -17 793 C-16.08 791.94 -15.16 790.89 -14.24 789.84 C-8.01 782.66 -2.06 775.34 3.67 767.75 C5.08 765.9 6.51 764.05 7.95 762.21 C20.22 746.46 31.75 730.15 42 713 C43.14 711.2 44.29 709.41 45.44 707.62 C51.74 697.74 57.75 687.82 62.9 677.28 C65.56 671.83 68.39 666.47 71.25 661.12 C74.15 655.66 76.89 650.28 79.03 644.46 C80.26 641.33 81.73 638.34 83.19 635.31 C87.64 625.99 91.26 616.34 94.95 606.7 C95.97 604.08 97.02 601.47 98.08 598.86 C99.91 594.3 101.51 589.69 103 585 C103.29 584.1 103.57 583.2 103.87 582.28 C127.59 507.36 136.78 432.45 134 354 C133.97 353.26 133.95 352.52 133.92 351.76 C132.13 301.3 122.97 250.71 107.23 202.76 C106.02 199.05 104.84 195.33 103.68 191.61 C99.14 177.37 93.96 163.47 88.38 149.62 C88.07 148.86 87.76 148.09 87.44 147.3 C83.38 137.23 78.9 127.48 73.93 117.83 C72.62 115.25 71.35 112.66 70.07 110.06 C66.48 102.71 62.64 95.5 58.75 88.31 C58.24 87.37 57.73 86.42 57.21 85.45 C54.39 80.26 54.39 80.26 50.95 75.48 C48.54 72.41 47.04 69.15 45.34 65.64 C43.2 61.43 40.68 57.48 38.12 53.5 C37.59 52.67 37.06 51.84 36.52 50.98 C32.46 44.65 28.25 38.46 23.82 32.38 C22.5 30.57 21.19 28.75 19.88 26.94 C19.44 26.33 19 25.73 18.55 25.11 C16.27 21.92 14.26 18.77 12.5 15.25 C9.94 10.29 6.03 6.77 2.01 2.97 C1.35 2.32 0.68 1.67 0 1 C0 0.67 0 0.34 0 0 Z " fill="#F4C433" transform="translate(1028,137)"/>
<path d="M0 0 C1.14 0.39 2.27 0.77 3.45 1.17 C31.1 11.08 47.37 34.81 59.81 60.31 C64.11 69.44 67.01 78.84 69.41 88.62 C69.93 90.7 70.47 92.76 71.03 94.83 C74.37 109.1 77.69 137.63 71 151 C66.94 149.7 62.99 148.23 59.04 146.64 C24.11 132.68 -13.46 124.38 -51 122 C-51.97 121.94 -51.97 121.94 -52.96 121.87 C-65.27 121.11 -77.54 120.8 -89.88 120.81 C-90.76 120.81 -91.64 120.81 -92.55 120.81 C-142.9 120.88 -201.01 126.11 -246.38 149.76 C-249.22 151.1 -250.91 151.1 -254 151 C-260.55 118.36 -255.11 83.19 -237 55 C-221.71 32.6 -199.28 18.96 -173 13 C-162.2 11.11 -151.9 10.89 -140.98 11.39 C-108.09 12.86 -79.18 8.09 -48.03 -2.12 C-32.81 -6.53 -14.76 -5.33 0 0 Z " fill="#DF494B" transform="translate(730,998)"/>
<path d="M0 0 C1.33 0 1.33 0 2.68 0 C58.22 0.08 114.6 8.37 165.25 32.19 C165.9 32.49 166.56 32.8 167.23 33.11 C179.72 38.99 190.62 46.42 201.25 55.19 C202.17 55.86 203.09 56.54 204.04 57.23 C204.77 57.88 205.5 58.52 206.25 59.19 C206.25 60.18 206.25 61.17 206.25 62.19 C206.91 62.52 207.57 62.85 208.25 63.19 C200.77 78.32 191.11 92.17 175.22 99.18 C173.08 100.03 173.08 100.03 172.25 102.19 C159.42 106.46 145.35 109.31 132.25 105.19 C130.8 104.97 129.34 104.79 127.88 104.62 C124.25 104.19 124.25 104.19 123.25 103.19 C121.95 102.83 120.63 102.53 119.31 102.25 C118.51 102.08 117.71 101.9 116.88 101.73 C113.33 101 109.78 100.32 106.22 99.65 C104.25 99.19 104.25 99.19 103.25 98.19 C101.44 97.82 99.63 97.49 97.81 97.19 C92.47 96.3 92.47 96.3 90.25 95.19 C88.75 94.99 87.25 94.82 85.75 94.69 C81.47 94.3 81.47 94.3 79.25 93.19 C76.94 92.82 74.63 92.49 72.31 92.19 C65.57 91.3 65.57 91.3 62.25 90.19 C59.77 89.98 57.3 89.82 54.81 89.69 C47.74 89.32 47.74 89.32 45.41 88.69 C42.63 88.04 39.99 87.97 37.14 87.87 C35.92 87.83 34.71 87.79 33.45 87.74 C31.5 87.68 31.5 87.68 29.5 87.62 C28.49 87.59 28.49 87.59 27.46 87.56 C9.31 87 -8.79 87.06 -26.94 87.62 C-28.23 87.66 -29.53 87.7 -30.87 87.74 C-32.69 87.81 -32.69 87.81 -34.54 87.87 C-35.62 87.91 -36.7 87.94 -37.81 87.98 C-40.55 88.17 -43.07 88.62 -45.75 89.19 C-48.04 89.36 -50.33 89.5 -52.62 89.62 C-57.64 89.95 -61.94 90.71 -66.75 92.19 C-69.37 92.51 -71.98 92.74 -74.61 92.94 C-76.8 93.07 -76.8 93.07 -78.75 94.19 C-80.74 94.53 -82.75 94.84 -84.75 95.12 C-98.28 97.08 -98.28 97.08 -111.25 101.25 C-114.37 102.42 -117.45 102.74 -120.75 103.19 C-121.08 103.52 -121.41 103.85 -121.75 104.19 C-131.88 106.65 -142.39 106.78 -152.75 107.19 C-152.75 106.53 -152.75 105.87 -152.75 105.19 C-153.31 105.2 -153.87 105.21 -154.45 105.21 C-162.96 104.9 -169.46 101.19 -176.75 97.19 C-177.43 96.86 -178.11 96.53 -178.81 96.19 C-184.84 93.17 -190.11 88.01 -194.75 83.19 C-194.75 82.53 -194.75 81.87 -194.75 81.19 C-195.74 80.86 -196.73 80.53 -197.75 80.19 C-198.82 78.38 -198.82 78.38 -199.75 76.19 C-200.39 74.83 -201.04 73.48 -201.69 72.12 C-202.17 71.12 -202.17 71.12 -202.65 70.09 C-203.68 68.12 -203.68 68.12 -205.37 66.61 C-206.75 65.19 -206.75 65.19 -206.94 62.5 C-206.88 61.74 -206.81 60.97 -206.75 60.19 C-206.23 59.96 -205.7 59.74 -205.16 59.51 C-201.88 57.71 -199.09 55.35 -196.19 53 C-190.28 48.28 -184.22 44.1 -177.75 40.19 C-177.04 39.71 -176.32 39.24 -175.59 38.75 C-137.17 13.84 -82.46 4.1 -37.75 1.19 C-36.46 1.1 -35.16 1.02 -33.83 0.93 C-22.55 0.21 -11.3 -0.01 0 0 Z " fill="#FBFDFD" transform="translate(638.75,1117.8125)"/>
<path d="M0 0 C12.09 -0.15 22.97 0.69 34.44 4.64 C35.49 5 36.54 5.36 37.62 5.73 C63.23 14.81 82.14 35.82 93.68 59.97 C99.76 73.27 102.57 89.44 101.5 104.08 C101.42 105.3 101.34 106.51 101.26 107.77 C99.55 128.63 91.4 150.03 76.5 165.08 C75.54 166.26 74.58 167.45 73.63 168.64 C70.11 172.78 65.84 175.85 61.5 179.08 C60.71 179.75 59.91 180.41 59.09 181.1 C54.64 184.51 49.55 186.69 44.5 189.08 C43.7 189.47 42.9 189.85 42.07 190.25 C18.94 200.99 -7.84 200.06 -31.63 192.02 C-45.01 186.87 -56.38 179.16 -66.5 169.08 C-67.34 168.24 -68.19 167.4 -69.06 166.53 C-69.87 165.72 -70.67 164.91 -71.5 164.08 C-72.14 163.43 -72.79 162.79 -73.45 162.12 C-89.62 144.92 -96.91 119.91 -96.61 96.6 C-95.77 77.69 -90.39 61.11 -80.5 45.08 C-80.01 44.24 -79.53 43.41 -79.04 42.54 C-73.14 33.11 -65.38 25.67 -56.5 19.08 C-55.78 18.54 -55.07 18 -54.33 17.44 C-38.33 6.04 -19.42 0.46 0 0 Z " fill="#3A4246" transform="translate(851.49609375,298.91796875)"/>
<path d="M0 0 C11.74 -0.15 22.39 0.75 33.54 4.58 C34.58 4.94 35.63 5.3 36.7 5.66 C63.12 15.05 81.31 34.98 93.38 59.99 C104.01 84.37 102.87 111.85 94.19 136.56 C91.9 142.08 88.93 147.06 85.73 152.08 C85.24 152.91 84.76 153.74 84.27 154.59 C71.99 174.43 50.63 189.02 28.32 195.3 C-0.15 201.49 -27.8 196.86 -52.51 181.27 C-57.82 177.69 -62.56 173.4 -67.27 169.08 C-68.05 168.38 -68.82 167.68 -69.62 166.95 C-74.63 162.18 -78.54 156.9 -82.27 151.08 C-82.87 150.18 -83.47 149.27 -84.09 148.34 C-96.74 128.18 -99.86 101.8 -94.92 78.74 C-92.07 67.04 -88.01 56.1 -81.27 46.08 C-80.38 44.43 -80.38 44.43 -79.48 42.75 C-77.21 38.75 -74.36 35.53 -71.21 32.21 C-70.35 31.3 -70.35 31.3 -69.47 30.37 C-61.01 21.54 -52.45 15.1 -41.27 10.08 C-40.55 9.73 -39.82 9.37 -39.08 9 C-26.38 2.92 -14 0.35 0 0 Z " fill="#3A4246" transform="translate(427.2734375,298.91796875)"/>
<path d="M0 0 C1.89 0.03 1.89 0.03 3.81 0.06 C3.81 0.72 3.81 1.38 3.81 2.06 C6.45 2.06 9.09 2.06 11.81 2.06 C12.31 3.55 12.31 3.55 12.81 5.06 C13.47 5.06 14.13 5.06 14.81 5.06 C15.03 6.76 15.03 6.76 15.25 8.5 C15.42 11.87 15.42 11.87 16.81 13.06 C17 16 17 16 16.81 19.06 C14.05 21.82 11.61 21.64 7.81 22.06 C7.81 22.72 7.81 23.38 7.81 24.06 C6.49 23.73 5.17 23.4 3.81 23.06 C3.81 23.72 3.81 24.38 3.81 25.06 C1.17 25.72 -1.47 26.38 -4.19 27.06 C-4.68 29.54 -4.68 29.54 -5.19 32.06 C-4.05 32.21 -2.92 32.35 -1.75 32.5 C1.81 33.06 1.81 33.06 2.81 34.06 C2.95 36.73 2.85 39.39 2.81 42.06 C2.15 42.06 1.49 42.06 0.81 42.06 C1.31 44.54 1.31 44.54 1.81 47.06 C1.15 47.06 0.49 47.06 -0.19 47.06 C0.31 49.54 0.31 49.54 0.81 52.06 C0.15 52.06 -0.51 52.06 -1.19 52.06 C-1 53.32 -0.82 54.58 -0.62 55.88 C-0.18 58.89 -0.19 60.07 -1.19 63.06 C-0.53 63.06 0.13 63.06 0.81 63.06 C0.78 63.68 0.74 64.29 0.71 64.93 C0.67 66.14 0.67 66.14 0.62 67.38 C0.59 68.18 0.56 68.98 0.52 69.8 C0.63 72.13 0.63 72.13 2.18 73.86 C3.79 75.3 3.79 75.3 6.19 75.06 C9.54 75.06 11.05 76.22 13.81 78.06 C20.77 82.11 30.57 82.15 38.31 80.54 C39.05 80.34 39.8 80.14 40.56 79.94 C45.18 78.72 48.31 79.59 52.81 81.06 C52.81 82.38 52.81 83.7 52.81 85.06 C58.75 84.57 58.75 84.57 64.81 84.06 C64.48 83.07 64.15 82.08 63.81 81.06 C66.49 79.4 68.81 78.06 71.81 77.06 C72.14 78.05 72.47 79.04 72.81 80.06 C73.62 79.4 74.42 78.74 75.25 78.06 C79.25 75.34 83.15 75.69 87.81 76.06 C91.89 83.12 91.89 83.12 91.56 87.06 C91.19 88.05 91.19 88.05 90.81 89.06 C90.19 89.14 89.58 89.23 88.94 89.31 C86.68 89.84 86.68 89.84 85.88 91.81 C85.52 92.56 85.17 93.3 84.81 94.06 C84.01 94.83 83.2 95.59 82.38 96.38 C79.37 99.52 78.32 102.02 76.81 106.06 C76.15 106.06 75.49 106.06 74.81 106.06 C74.85 107.16 74.89 108.25 74.94 109.38 C74.81 113.06 74.81 113.06 72.81 116.06 C72.19 117.18 71.57 118.29 70.94 119.44 C69.69 121.65 68.49 123.46 66.88 125.44 C65.06 127.74 63.8 129.86 62.44 132.44 C57.34 141.7 50.77 146.52 41.81 152.06 C40.54 152.9 40.54 152.9 39.24 153.75 C36.68 155.13 34.88 155.53 32 155.75 C31.21 155.82 30.42 155.88 29.61 155.95 C28.72 156.01 28.72 156.01 27.81 156.06 C27.81 156.72 27.81 157.38 27.81 158.06 C26.52 158.43 25.23 158.78 23.94 159.12 C23.22 159.32 22.5 159.52 21.76 159.72 C19.81 160.06 19.81 160.06 17.81 159.06 C17.81 159.72 17.81 160.38 17.81 161.06 C15.83 160.73 13.85 160.4 11.81 160.06 C11.81 160.72 11.81 161.38 11.81 162.06 C9.25 162.14 6.69 162.2 4.12 162.25 C3.4 162.28 2.68 162.3 1.94 162.33 C-2.74 162.39 -5.36 161.69 -9.19 159.06 C-10.18 159.06 -11.17 159.06 -12.19 159.06 C-12.19 158.4 -12.19 157.74 -12.19 157.06 C-13.02 157.4 -13.02 157.4 -13.88 157.75 C-17.11 158.19 -18.45 156.76 -21.19 155.06 C-23.18 154.7 -25.18 154.37 -27.19 154.06 C-28.18 153.4 -29.17 152.74 -30.19 152.06 C-31.2 151.55 -32.21 151.03 -33.25 150.5 C-37.66 148.02 -41.18 144.62 -44.86 141.18 C-47.11 139.05 -47.11 139.05 -49.49 137.41 C-50.05 136.97 -50.61 136.52 -51.19 136.06 C-51.19 135.4 -51.19 134.74 -51.19 134.06 C-53.5 133.73 -55.81 133.4 -58.19 133.06 C-57.86 134.71 -57.53 136.36 -57.19 138.06 C-62.61 137.69 -62.61 137.69 -65.04 135.04 C-67.72 131.32 -70.26 127.53 -72.75 123.69 C-73.23 122.96 -73.71 122.23 -74.21 121.48 C-78.56 114.77 -81.69 109.32 -81.19 101.06 C-79.21 101.06 -77.23 101.06 -75.19 101.06 C-75.51 100.2 -75.82 99.34 -76.15 98.45 C-77.49 94.07 -77.69 89.93 -77.95 85.38 C-78.13 82.14 -78.13 82.14 -78.68 79.28 C-79.34 75.55 -79.74 73.14 -77.98 69.7 C-74.25 64.6 -74.25 64.6 -71.19 63.06 C-70.55 57.03 -70.55 57.03 -73.69 52.06 C-74.51 51.4 -75.34 50.74 -76.19 50.06 C-75.12 47.84 -73.98 45.73 -72.69 43.62 C-71.24 41.16 -70.22 38.72 -69.19 36.06 C-68.19 35.06 -68.19 35.06 -65.62 35 C-64.82 35.02 -64.02 35.04 -63.19 35.06 C-62.86 35.72 -62.53 36.38 -62.19 37.06 C-62.52 38.05 -62.85 39.04 -63.19 40.06 C-58.24 39.57 -58.24 39.57 -53.19 39.06 C-53.19 38.4 -53.19 37.74 -53.19 37.06 C-52.28 36.46 -51.37 35.87 -50.44 35.25 C-47.18 33.3 -47.18 33.3 -45.38 30.71 C-42.87 27.68 -40.05 25.6 -36.81 23.44 C-36.26 23.06 -35.71 22.67 -35.14 22.28 C-31.62 19.88 -28 17.95 -24.19 16.06 C-22.91 15.2 -21.66 14.31 -20.44 13.38 C-17.19 11.06 -17.19 11.06 -15.19 11.06 C-15.44 10.32 -15.68 9.58 -15.94 8.81 C-16.19 6.06 -16.19 6.06 -14.56 3.81 C-11.98 1.91 -10.34 1.47 -7.19 1.06 C-4.44 0.15 -2.83 -0.05 0 0 Z " fill="#3A4146" transform="translate(424.1875,314.9375)"/>
<path d="M0 0 C5.37 3.02 11.99 7.49 15 13 C15.69 16.31 15.42 18.26 13.76 21.21 C12.22 23.51 10.62 25.76 9 28 C5.27 33.61 5.27 33.61 4 40 C3.34 40 2.68 40 2 40 C2.2 40.54 2.41 41.08 2.62 41.64 C3.13 44.83 2.23 46.77 1.06 49.75 C0.68 50.73 0.3 51.72 -0.09 52.73 C-0.39 53.48 -0.69 54.23 -1 55 C-1.66 55 -2.32 55 -3 55 C-2.72 56.67 -2.72 56.67 -2.44 58.38 C-2 62 -2 62 -3 64 C-2.34 64 -1.68 64 -1 64 C1.09 67.4 1.18 70.05 1 74 C1.66 74 2.32 74 3 74 C3.47 74.64 3.95 75.28 4.44 75.94 C5.91 78.28 5.91 78.28 9 79 C9 79.66 9 80.32 9 81 C9.89 80.77 10.77 80.55 11.69 80.31 C15.69 79.93 16.74 80.8 20 83 C24.13 84.89 24.13 84.89 28.38 84.12 C28.91 83.75 29.45 83.38 30 83 C30 82.01 30 81.02 30 80 C31.28 80.04 32.56 80.08 33.88 80.12 C36.02 80.24 36.02 80.24 38 80 C38.66 79.34 39.32 78.68 40 78 C42.38 78.24 42.38 78.24 45.12 78.88 C46.04 79.08 46.95 79.28 47.88 79.49 C48.58 79.66 49.28 79.83 50 80 C50 80.99 50 81.98 50 83 C53.96 83 57.92 83 62 83 C61.9 81.97 61.79 80.94 61.69 79.88 C62.1 74.81 63.43 73.49 67 70 C67.66 70 68.32 70 69 70 C69.99 71.49 69.99 71.49 71 73 C73.39 73.44 73.39 73.44 76.12 73.44 C81.7 73.78 85.21 75.2 90 78 C90 78.66 90 79.32 90 80 C91.65 80.66 93.3 81.32 95 82 C93.99 84.54 93.31 85.79 91 87.31 C90.34 87.54 89.68 87.77 89 88 C88.34 87.67 87.68 87.34 87 87 C87 87.66 87 88.32 87 89 C85.36 90.04 83.69 91.04 82 92 C79.78 94.22 79.69 95.06 79 98 C78.35 99.43 77.66 100.85 76.94 102.25 C76.58 102.96 76.21 103.66 75.84 104.39 C75.56 104.92 75.29 105.45 75 106 C74.34 106 73.68 106 73 106 C73.33 107.32 73.66 108.64 74 110 C73.34 110 72.68 110 72 110 C72.1 110.85 72.21 111.69 72.31 112.56 C71.94 116.62 70.79 118.05 68.36 121.16 C67.01 122.99 66.04 124.76 65.06 126.81 C59.06 139.1 52.5 145.49 40.81 152.38 C40.23 152.72 39.65 153.07 39.05 153.42 C35.39 155.5 32.21 156.67 28 157 C27.34 156.67 26.68 156.34 26 156 C26 156.66 26 157.32 26 158 C24.68 157.67 23.36 157.34 22 157 C22 157.66 22 158.32 22 159 C17.25 160.12 17.25 160.12 15 159 C15 159.66 15 160.32 15 161 C13.02 161 11.04 161 9 161 C9 160.34 9 159.68 9 159 C7.35 159 5.7 159 4 159 C4 159.66 4 160.32 4 161 C-1.27 161.85 -5.09 162.46 -10 160 C-11.07 159.71 -12.14 159.42 -13.25 159.12 C-16.93 158.02 -20.22 156.6 -23.69 154.98 C-25.91 154.04 -28.05 153.43 -30.38 152.81 C-40.2 149.63 -49.03 140.17 -55 132 C-55 131.01 -55 130.02 -55 129 C-55.9 128.66 -55.9 128.66 -56.81 128.31 C-59.56 126.67 -60.42 124.73 -62 122 C-62.66 122 -63.32 122 -64 122 C-63.01 125.3 -62.02 128.6 -61 132 C-62.65 132.33 -64.3 132.66 -66 133 C-68.72 131.12 -69.55 128.92 -70.62 125.88 C-72.31 121.79 -74.43 119.41 -77.69 116.44 C-80.81 113.53 -82.56 111.74 -83.06 107.44 C-83.04 106.3 -83.02 105.17 -83 104 C-80.69 102.88 -80.69 102.88 -78 102 C-77.01 102.66 -76.02 103.32 -75 104 C-75 104.66 -75 105.32 -75 106 C-74.34 106 -73.68 106 -73 106 C-73.28 105.48 -73.55 104.96 -73.84 104.43 C-74.2 103.73 -74.56 103.03 -74.94 102.31 C-75.3 101.63 -75.66 100.94 -76.03 100.24 C-77.97 95.76 -78.14 92.43 -77.06 87.69 C-76.77 86.36 -76.77 86.36 -76.47 85.01 C-76.24 84.02 -76.24 84.02 -76 83 C-76.66 83 -77.32 83 -78 83 C-81.3 72.7 -81.3 72.7 -79.1 68.13 C-78.74 67.47 -78.37 66.81 -78 66.12 C-75.67 61.78 -75.44 58.91 -76 54 C-77.35 51.07 -77.35 51.07 -79 49 C-78.45 48.81 -77.89 48.61 -77.32 48.41 C-76.23 48.02 -76.23 48.02 -75.12 47.62 C-74.41 47.37 -73.69 47.11 -72.95 46.85 C-70.82 46.06 -70.82 46.06 -69 44 C-69 44.66 -69 45.32 -69 46 C-68.01 46 -67.02 46 -66 46 C-65.77 45.36 -65.55 44.72 -65.31 44.06 C-64 42 -64 42 -61.38 41.25 C-60.59 41.17 -59.81 41.08 -59 41 C-59 40.34 -59 39.68 -59 39 C-57.68 39.33 -56.36 39.66 -55 40 C-55 39.34 -55 38.68 -55 38 C-53.64 37.13 -52.28 36.26 -50.91 35.4 C-48.53 33.65 -46.61 31.63 -44.56 29.5 C-41.54 26.42 -38.81 24 -34.93 22 C-25.65 17.18 -15.88 10.81 -10 2 C-6.7 -0.24 -3.93 -0.47 0 0 Z " fill="#3A4146" transform="translate(850,315)"/>
<path d="M0 0 C4.17 1.34 6.12 2.96 8.81 6.38 C11.93 10.02 14.41 12.05 18.76 13.93 C25.59 17.18 31.74 22.07 37.82 26.52 C45.6 32.21 53.74 37.15 62.04 42.05 C65.82 44.28 69.54 46.58 73.23 48.94 C85.55 56.8 98.53 63.35 111.63 69.79 C114.2 71.06 116.71 72.39 119.22 73.78 C128.71 79.02 138.4 83.2 148.5 87.12 C149.99 87.71 151.48 88.3 152.97 88.89 C155.9 90.04 158.84 91.19 161.77 92.34 C164.52 93.41 167.26 94.51 169.99 95.62 C178.82 99.22 187.73 102.29 196.85 105.1 C197.85 105.42 198.85 105.74 199.89 106.07 C200.78 106.35 201.66 106.62 202.58 106.91 C205.45 108.2 207.03 109.55 209 112 C209.57 114.06 209.57 114.06 209.69 116.29 C209.74 117.14 209.8 117.98 209.86 118.86 C209.91 119.77 209.95 120.68 210 121.62 C210.69 131.64 212.04 141.44 213.68 151.34 C213.85 152.38 214.02 153.43 214.2 154.5 C214.35 155.42 214.51 156.34 214.66 157.28 C215.59 164.81 215.59 164.81 214 168 C214.66 168.33 215.32 168.66 216 169 C215.34 169.33 214.68 169.66 214 170 C213.01 169.67 212.02 169.34 211 169 C211 168.34 211 167.68 211 167 C210.38 166.86 209.76 166.71 209.12 166.56 C207 166 207 166 205 165 C205 164.34 205 163.68 205 163 C204.28 162.88 203.56 162.75 202.81 162.62 C200.04 162.01 197.6 161.12 195 160 C195 159.34 195 158.68 195 158 C194.29 157.9 193.58 157.79 192.86 157.68 C189.64 156.91 187.2 155.67 184.31 154.06 C183.36 153.54 182.41 153.01 181.43 152.47 C179 151 179 151 177 149 C174.68 148.28 172.35 147.61 170 147 C170 146.34 170 145.68 170 145 C169.46 144.73 168.93 144.46 168.38 144.19 C165.58 142.79 162.79 141.4 160 140 C160 139.34 160 138.68 160 138 C158.86 137.81 158.86 137.81 157.69 137.62 C155 137 155 137 152 135 C152 134.34 152 133.68 152 133 C150.92 132.85 150.92 132.85 149.81 132.69 C146.72 131.93 144.58 130.84 142 129 C142 128.34 142 127.68 142 127 C140.67 126.63 140.67 126.63 139.31 126.25 C135.86 124.95 133.8 123.36 131 121 C129.69 120.29 128.36 119.61 127 119 C127 118.34 127 117.68 127 117 C126.03 116.73 125.06 116.46 124.06 116.19 C123.05 115.8 122.04 115.4 121 115 C120.67 114.01 120.34 113.02 120 112 C117.37 110.54 114.71 109.3 111.94 108.12 C109.17 106.52 107.24 104.29 105 102 C101.48 98.73 97.88 95.87 93.81 93.31 C87.01 88.91 80.88 83.13 75.34 77.23 C73.9 75.74 73.9 75.74 71 75 C71 74.34 71 73.68 71 73 C70.34 73 69.68 73 69 73 C67 70 67 70 66 68 C65.34 68 64.68 68 64 68 C64 67.01 64 66.02 64 65 C63.24 64.9 62.47 64.79 61.69 64.69 C58.82 63.95 57.77 63.33 56 61 C56 60.34 56 59.68 56 59 C55.34 59 54.68 59 54 59 C54 58.34 54 57.68 54 57 C53.01 56.67 52.02 56.34 51 56 C51 55.34 51 54.68 51 54 C50.34 54 49.68 54 49 54 C49 53.34 49 52.68 49 52 C47.35 51.34 45.7 50.68 44 50 C44 49.01 44 48.02 44 47 C42.35 46.34 40.7 45.68 39 45 C39 44.01 39 43.02 39 42 C38.01 41.67 37.02 41.34 36 41 C36 40.34 36 39.68 36 39 C35.34 39 34.68 39 34 39 C32.82 37.54 32.82 37.54 31.56 35.62 C29.78 32.91 28.81 31.87 26 30 C26 29.34 26 28.68 26 28 C25.34 28 24.68 28 24 28 C24 27.01 24 26.02 24 25 C23.01 25 22.02 25 21 25 C21 24.34 21 23.68 21 23 C20.34 23 19.68 23 19 23 C19 22.01 19 21.02 19 20 C18.01 19.67 17.02 19.34 16 19 C14.16 17.16 12.81 15.37 11.31 13.25 C8.7 9.7 5.9 7.01 2.42 4.32 C1 3 1 3 0 0 Z " fill="#F4C433" transform="translate(158,1004)"/>
<path d="M0 0 C10.23 5.74 17.78 16.27 21.44 27.37 C21.99 31.9 21.96 36.03 20.32 40.31 C17.24 43.69 14.6 45.26 9.96 45.5 C-2.09 44.93 -12.11 38.3 -20.19 29.62 C-24.99 23.43 -27.14 16.17 -26.85 8.38 C-26.24 4.16 -23.77 1.05 -20.56 -1.63 C-13.54 -3.97 -6.66 -3.01 0 0 Z " fill="#FBFDFD" transform="translate(467.55859375,340.62890625)"/>
<path d="M0 0 C10.48 5.79 17.34 14.5 21.88 25.5 C22.9 31.3 23.38 36.29 19.97 41.29 C16.78 44.65 14.23 45.34 9.69 45.88 C-3.62 44.57 -13.82 35.31 -22.12 25.5 C-25.86 19.87 -25.9 13.06 -25.12 6.5 C-23.69 3.21 -21.88 0.8 -19.12 -1.5 C-12.29 -3.78 -6.49 -3.04 0 0 Z " fill="#FBFDFD" transform="translate(891.125,340.5)"/>
<path d="M0 0 C0.33 0 0.66 0 1 0 C1 22.77 1 45.54 1 69 C0.67 69 0.34 69 0 69 C0 46.23 0 23.46 0 0 Z " fill="#FBFDFD" transform="translate(1257,582)"/>
<path d="M0 0 C0.33 1.32 0.66 2.64 1 4 C0.5 4.41 0.01 4.82 -0.5 5.25 C-5.48 9.48 -9.83 13.98 -14 19 C-14.66 18.67 -15.32 18.34 -16 18 C-13.52 13.24 -10.12 9.88 -6.31 6.19 C-5.71 5.59 -5.1 4.99 -4.47 4.38 C-2.99 2.91 -1.49 1.46 0 0 Z " fill="#F7CD36" transform="translate(230,152)"/>
<path d="M0 0 C0.33 0.99 0.66 1.98 1 3 C0.01 4.48 0.01 4.48 -1 6 C-1.66 6 -2.32 6 -3 6 C-3 6.66 -3 7.32 -3 8 C-3.66 8 -4.32 8 -5 8 C-5.33 8.99 -5.66 9.98 -6 11 C-6.66 11 -7.32 11 -8 11 C-8 11.66 -8 12.32 -8 13 C-8.66 13 -9.32 13 -10 13 C-10.33 13.99 -10.66 14.98 -11 16 C-14.06 17.69 -14.06 17.69 -17 19 C-16.34 17.68 -15.68 16.36 -15 15 C-14.34 15 -13.68 15 -13 15 C-12.79 14.46 -12.57 13.92 -12.35 13.36 C-10.52 10.16 -8 7.79 -5.38 5.25 C-4.86 4.74 -4.34 4.24 -3.81 3.71 C-2.55 2.47 -1.27 1.24 0 0 Z " fill="#F8D038" transform="translate(1091,1035)"/>
<path d="M0 0 C0 3 0 3 -1.97 5.26 C-2.8 6.06 -3.64 6.86 -4.5 7.69 C-5.34 8.5 -6.17 9.3 -7.03 10.14 C-7.68 10.75 -8.33 11.37 -9 12 C-9.66 11.67 -10.32 11.34 -11 11 C-8.21 5.97 -5.37 2.3 0 0 Z " fill="#F6CB35" transform="translate(191,193)"/>
<path d="M0 0 C0.68 1.8 0.68 1.8 1 4 C-0.21 5.7 -0.21 5.7 -1.94 7.25 C-2.5 7.77 -3.07 8.29 -3.65 8.83 C-4.1 9.21 -4.54 9.6 -5 10 C-5.66 9.67 -6.32 9.34 -7 9 C-2.86 2.57 -2.86 2.57 0 0 Z " fill="#F5C834" transform="translate(230,152)"/>
<path d="M0 0 C7.26 0 14.52 0 22 0 C22 0.33 22 0.66 22 1 C14.74 1 7.48 1 0 1 C0 0.67 0 0.34 0 0 Z " fill="#FBFDFD" transform="translate(644,1260)"/>
<path d="M0 0 C7.26 0 14.52 0 22 0 C22 0.33 22 0.66 22 1 C14.74 1 7.48 1 0 1 C0 0.67 0 0.34 0 0 Z " fill="#FBFDFD" transform="translate(614,1260)"/>
<path d="M0 0 C0.33 0 0.66 0 1 0 C1 5.28 1 10.56 1 16 C0.67 16 0.34 16 0 16 C0 10.72 0 5.44 0 0 Z " fill="#FBFDFD" transform="translate(1255,661)"/>
<path d="M0 0 C0.33 0 0.66 0 1 0 C1 4.95 1 9.9 1 15 C0.67 15 0.34 15 0 15 C0 10.05 0 5.1 0 0 Z " fill="#FBFDFD" transform="translate(1255,557)"/>
<path d="M0 0 C0.33 0 0.66 0 1 0 C1 4.29 1 8.58 1 13 C0.67 13 0.34 13 0 13 C0 8.71 0 4.42 0 0 Z " fill="#FBFDFD" transform="translate(1252,689)"/>
<path d="M0 0 C0.33 0 0.66 0 1 0 C1 3.96 1 7.92 1 12 C0.67 12 0.34 12 0 12 C0 8.04 0 4.08 0 0 Z " fill="#FBFDFD" transform="translate(1252,532)"/>
<path d="M0 0 C3.63 0 7.26 0 11 0 C11 0.33 11 0.66 11 1 C7.37 1 3.74 1 0 1 C0 0.67 0 0.34 0 0 Z " fill="#FBFDFD" transform="translate(677,1262)"/>
<path d="M0 0 C2.97 0 5.94 0 9 0 C9 0.33 9 0.66 9 1 C6.03 1 3.06 1 0 1 C0 0.67 0 0.34 0 0 Z " fill="#FBFDFD" transform="translate(594,1262)"/>
<path d="M0 0 C0.33 0 0.66 0 1 0 C1 2.64 1 5.28 1 8 C0.67 8 0.34 8 0 8 C0 5.36 0 2.72 0 0 Z " fill="#FBFDFD" transform="translate(1247,724)"/>
<path d="M0 0 C0.33 0 0.66 0 1 0 C1 2.64 1 5.28 1 8 C0.67 8 0.34 8 0 8 C0 5.36 0 2.72 0 0 Z " fill="#FBFDFD" transform="translate(1250,518)"/>
<path d="M0 0 C0.33 0 0.66 0 1 0 C1 2.64 1 5.28 1 8 C0.67 8 0.34 8 0 8 C0 5.36 0 2.72 0 0 Z " fill="#FBFDFD" transform="translate(1247,501)"/>
<path d="M0 0 C0.33 0 0.66 0 1 0 C1 2.31 1 4.62 1 7 C0.67 7 0.34 7 0 7 C0 4.69 0 2.38 0 0 Z " fill="#FBFDFD" transform="translate(1242,749)"/>
<path d="M0 0 C0.33 0 0.66 0 1 0 C1 2.31 1 4.62 1 7 C0.67 7 0.34 7 0 7 C0 4.69 0 2.38 0 0 Z " fill="#FBFDFD" transform="translate(1245,736)"/>
<path d="M0 0 C0.33 0 0.66 0 1 0 C1 2.31 1 4.62 1 7 C0.67 7 0.34 7 0 7 C0 4.69 0 2.38 0 0 Z " fill="#FBFDFD" transform="translate(1250,709)"/>
<path d="M0 0 C0.33 0 0.66 0 1 0 C1 2.31 1 4.62 1 7 C0.67 7 0.34 7 0 7 C0 4.69 0 2.38 0 0 Z " fill="#FBFDFD" transform="translate(1242,477)"/>
<path d="M0 0 C1.65 0 3.3 0 5 0 C5 0.33 5 0.66 5 1 C3.35 1 1.7 1 0 1 C0 0.67 0 0.34 0 0 Z " fill="#FBFDFD" transform="translate(713,1267)"/>
<path d="M0 0 C0.33 0 0.66 0 1 0 C1 1.65 1 3.3 1 5 C0.67 5 0.34 5 0 5 C0 3.35 0 1.7 0 0 Z " fill="#FBFDFD" transform="translate(1232,789)"/>
<path d="M0 0 C0.33 0 0.66 0 1 0 C1 1.65 1 3.3 1 5 C0.67 5 0.34 5 0 5 C0 3.35 0 1.7 0 0 Z " fill="#FBFDFD" transform="translate(1245,491)"/>
<path d="M0 0 C4 1 4 1 4 1 Z " fill="#FBFDFD" transform="translate(702,1265)"/>
<path d="M0 0 C4 1 4 1 4 1 Z " fill="#FBFDFD" transform="translate(574,1265)"/>
<path d="M0 0 C1 4 1 4 1 4 Z " fill="#FBFDFD" transform="translate(905,1176)"/>
<path d="M0 0 C1 4 1 4 1 4 Z " fill="#FBFDFD" transform="translate(1237,772)"/>
<path d="M0 0 C3 1 3 1 3 1 Z " fill="#FBFDFD" transform="translate(735,1272)"/>
<path d="M0 0 C3 1 3 1 3 1 Z " fill="#FBFDFD" transform="translate(564,1267)"/>
<path d="" fill="#FBFDFD" transform="translate(0,0)"/>
<path d="" fill="#FBFDFD" transform="translate(0,0)"/>
<path d="" fill="#FBFDFD" transform="translate(0,0)"/>
<path d="" fill="#FBFDFD" transform="translate(0,0)"/>
<path d="" fill="#FBFDFD" transform="translate(0,0)"/>
<path d="" fill="#FBFDFD" transform="translate(0,0)"/>
<path d="M0 0 C2 1 2 1 2 1 Z " fill="#FBFDFD" transform="translate(529,1275)"/>
<path d="" fill="#FBFDFD" transform="translate(0,0)"/>
<path d="M0 0 C2 1 2 1 2 1 Z " fill="#FBFDFD" transform="translate(909,1172)"/>
<path d="" fill="#FBFDFD" transform="translate(0,0)"/>
<path d="" fill="#FBD83B" transform="translate(0,0)"/>
<path d="" fill="#FBFDFD" transform="translate(0,0)"/>
<path d="" fill="#FBFDFD" transform="translate(0,0)"/>
<path d="" fill="#FBFDFD" transform="translate(0,0)"/>
<path d="" fill="#FBFDFD" transform="translate(0,0)"/>
<path d="" fill="#FBFDFD" transform="translate(0,0)"/>
<path d="" fill="#FBFDFD" transform="translate(0,0)"/>
<path d="" fill="#FBFDFD" transform="translate(0,0)"/>
<path d="" fill="#FBFDFD" transform="translate(0,0)"/>
<path d="" fill="#FBFDFD" transform="translate(0,0)"/>
<path d="" fill="#FBFDFD" transform="translate(0,0)"/>
<path d="" fill="#FBFDFD" transform="translate(0,0)"/>
<path d="" fill="#FBFDFD" transform="translate(0,0)"/>
<path d="" fill="#FBFDFD" transform="translate(0,0)"/>
<path d="" fill="#FBFDFD" transform="translate(0,0)"/>
<path d="" fill="#FBFDFD" transform="translate(0,0)"/>
<path d="" fill="#FBFDFD" transform="translate(0,0)"/>
<path d="" fill="#FBFDFD" transform="translate(0,0)"/>
<path d="" fill="#FBFDFD" transform="translate(0,0)"/>
<path d="" fill="#FBFDFD" transform="translate(0,0)"/>
<path d="" fill="#FBD83B" transform="translate(0,0)"/>
<path d="" fill="#FBD83B" transform="translate(0,0)"/>
<path d="" fill="#FBD83B" transform="translate(0,0)"/>
<path d="" fill="#FBD83B" transform="translate(0,0)"/>
<path d="" fill="#FBFDFD" transform="translate(0,0)"/>
<path d="" fill="#FBFDFD" transform="translate(0,0)"/>
<path d="" fill="#FBFDFD" transform="translate(0,0)"/>
<path d="" fill="#FBD83B" transform="translate(0,0)"/>
<path d="" fill="#FBFDFD" transform="translate(0,0)"/>
<path d="" fill="#FBFDFD" transform="translate(0,0)"/>
<path d="" fill="#FBFDFD" transform="translate(0,0)"/>
<path d="" fill="#FBFDFD" transform="translate(0,0)"/>
<path d="" fill="#FBFDFD" transform="translate(0,0)"/>
<path d="" fill="#FBFDFD" transform="translate(0,0)"/>
<path d="" fill="#FBFDFD" transform="translate(0,0)"/>
<path d="" fill="#FBFDFD" transform="translate(0,0)"/>
<path d="" fill="#FBFDFD" transform="translate(0,0)"/>
<path d="" fill="#FBFDFD" transform="translate(0,0)"/>
<path d="" fill="#FBFDFD" transform="translate(0,0)"/>
<path d="" fill="#FBFDFD" transform="translate(0,0)"/>
<path d="" fill="#FBFDFD" transform="translate(0,0)"/>
<path d="" fill="#F4C433" transform="translate(0,0)"/>
<path d="" fill="#FBFDFD" transform="translate(0,0)"/>
<path d="" fill="#FBFDFD" transform="translate(0,0)"/>
<path d="" fill="#FBFDFD" transform="translate(0,0)"/>
<path d="" fill="#F4C433" transform="translate(0,0)"/>
<path d="" fill="#FBFDFD" transform="translate(0,0)"/>
<path d="" fill="#FBFDFD" transform="translate(0,0)"/>
<path d="" fill="#FBD83B" transform="translate(0,0)"/>
<path d="" fill="#FBFDFD" transform="translate(0,0)"/>
<path d="" fill="#FBFDFD" transform="translate(0,0)"/>
<path d="" fill="#FBFDFD" transform="translate(0,0)"/>
<path d="" fill="#FBFDFD" transform="translate(0,0)"/>
<path d="" fill="#FBFDFD" transform="translate(0,0)"/>
<path d="" fill="#FBFDFD" transform="translate(0,0)"/>
<path d="" fill="#FBD83B" transform="translate(0,0)"/>
<path d="" fill="#FBFDFD" transform="translate(0,0)"/>
<path d="" fill="#FBFDFD" transform="translate(0,0)"/>
<path d="" fill="#FBFDFD" transform="translate(0,0)"/>
<path d="" fill="#FBFDFD" transform="translate(0,0)"/>
<path d="" fill="#FBFDFD" transform="translate(0,0)"/>
<path d="" fill="#FBD83B" transform="translate(0,0)"/>
<path d="" fill="#FBFDFD" transform="translate(0,0)"/>
<path d="" fill="#FBD83B" transform="translate(0,0)"/>
<path d="" fill="#FBFDFD" transform="translate(0,0)"/>
<path d="" fill="#FBFDFD" transform="translate(0,0)"/>
<path d="" fill="#FBFDFD" transform="translate(0,0)"/>
<path d="" fill="#FBFDFD" transform="translate(0,0)"/>
<path d="" fill="#FBFDFD" transform="translate(0,0)"/>
<path d="" fill="#FBD83B" transform="translate(0,0)"/>
<path d="" fill="#FBD83B" transform="translate(0,0)"/>
<path d="" fill="#FBD83B" transform="translate(0,0)"/>
<path d="" fill="#FBD83B" transform="translate(0,0)"/>
<path d="" fill="#FBFDFD" transform="translate(0,0)"/>
<path d="" fill="#FBFDFD" transform="translate(0,0)"/>
<path d="" fill="#FBFDFD" transform="translate(0,0)"/>
<path d="" fill="#FBD83B" transform="translate(0,0)"/>
<path d="" fill="#FBFDFD" transform="translate(0,0)"/>
<path d="" fill="#FBD83B" transform="translate(0,0)"/>
<path d="" fill="#FBFDFD" transform="translate(0,0)"/>
<path d="" fill="#FBFDFD" transform="translate(0,0)"/>
<path d="" fill="#FBFDFD" transform="translate(0,0)"/>
<path d="" fill="#FBFDFD" transform="translate(0,0)"/>
<path d="" fill="#FBD83B" transform="translate(0,0)"/>
<path d="" fill="#FBFDFD" transform="translate(0,0)"/>
<path d="" fill="#FBD83B" transform="translate(0,0)"/>
<path d="" fill="#FBFDFD" transform="translate(0,0)"/>
<path d="" fill="#FBD83B" transform="translate(0,0)"/>
<path d="" fill="#FBD83B" transform="translate(0,0)"/>
<path d="" fill="#FBD83B" transform="translate(0,0)"/>
<path d="" fill="#FBD83B" transform="translate(0,0)"/>
<path d="" fill="#F4C433" transform="translate(0,0)"/>
<path d="" fill="#FBD83B" transform="translate(0,0)"/>
<path d="" fill="#FBD83B" transform="translate(0,0)"/>
<path d="" fill="#FBD83B" transform="translate(0,0)"/>
<path d="" fill="#FBD83B" transform="translate(0,0)"/>
<path d="" fill="#FBD83B" transform="translate(0,0)"/>
<path d="" fill="#FBFDFD" transform="translate(0,0)"/>
<path d="" fill="#FBD83B" transform="translate(0,0)"/>
<path d="" fill="#FBD83B" transform="translate(0,0)"/>
<path d="" fill="#F4C433" transform="translate(0,0)"/>
<path d="" fill="#FBD83B" transform="translate(0,0)"/>
<path d="" fill="#FBFDFD" transform="translate(0,0)"/>
<path d="" fill="#F4C433" transform="translate(0,0)"/>
<path d="" fill="#F4C433" transform="translate(0,0)"/>
<path d="" fill="#FBD83B" transform="translate(0,0)"/>
<path d="" fill="#FBD83B" transform="translate(0,0)"/>
<path d="" fill="#FBD83B" transform="translate(0,0)"/>
<path d="" fill="#FBD83B" transform="translate(0,0)"/>
<path d="" fill="#FBD83B" transform="translate(0,0)"/>
<path d="" fill="#FBD83B" transform="translate(0,0)"/>
<path d="" fill="#FBD83B" transform="translate(0,0)"/>
<path d="" fill="#FBD83B" transform="translate(0,0)"/>
<path d="" fill="#FBD83B" transform="translate(0,0)"/>
<path d="" fill="#FBD83B" transform="translate(0,0)"/>
</svg>
